<svg xmlns="http://www.w3.org/2000/svg" width="49" height="52" viewBox="0 0 49 52">
    <g fill="none" fill-rule="evenodd">
        <path fill="#FFF" d="M-204-182h375v667h-375z"/>
        <g transform="translate(-17.8 -16)">
            <path stroke="#666" stroke-linecap="round" stroke-linejoin="round" stroke-width="1.188" d="M44.406 20.58c11.42 1.225 20.315 10.934 20.315 22.73 0 12.626-10.19 22.86-22.76 22.86-12.57 0-22.761-10.234-22.761-22.86 0-12.284 9.646-22.304 21.746-22.838"/>
            <path stroke="#666" stroke-linecap="round" stroke-linejoin="round" stroke-width="1.188" d="M42.57 32.427h-7.646s-2.495-5.07 5.582-7.883h3.825M36.055 36.76h-2.203v4.654h-3.03V38.88"/>
            <path stroke="#666" stroke-linecap="round" stroke-linejoin="round" stroke-width="1.188" d="M30.823 39.147v-.728c0-2.01-1.647-3.665-3.648-3.665-2.002 0-3.649 1.654-3.649 3.665v5.899h-1.881 1.882l.115 12.56M22.654 38.88h9.133M21.373 48.149h1.878M33.851 41.415h9.271M30.823 41.415v2.95"/>
            <path stroke="#666" stroke-linecap="round" stroke-linejoin="round" stroke-width="1.188" d="M28.253 61.046V46.854h-3.121l3.764-2.49h4.956M32.498 63.766l-.023-13.444c0-.235.19-.426.424-.426h1.86c.234 0 .424.19.424.426l.023 14.368M38.566 65.587V50.322c0-.235.19-.426.424-.426h1.86c.234 0 .424.19.424.426V65.71M28.253 46.854h14.135M42.57 22.18h-1.297v-3.526c0-.362.292-.654.651-.654h.647M27.175 34.754V32.75M42.454 32.427h7.647s2.495-5.07-5.582-7.883M48.97 36.76h2.204v4.654h3.028V38.88M54.203 39.147v-.728c0-2.01 1.647-3.665 3.648-3.665 2.001 0 3.648 1.654 3.648 3.665v5.899h1.422-1.422l-.066 10.655M62.371 38.88H53.24M58.792 51.21v1.566M26.233 51.993v1.567M51.174 41.415h-8.537M54.203 41.415v2.95"/>
            <path stroke="#666" stroke-linecap="round" stroke-linejoin="round" stroke-width="1.188" d="M56.773 60.243V46.854h3.12l-3.763-2.49h-4.934M52.55 63.55V50.322a.426.426 0 0 0-.424-.426h-1.86a.426.426 0 0 0-.424.426v14.192M46.46 65.34V50.322a.426.426 0 0 0-.425-.426h-1.86a.425.425 0 0 0-.423.426v15.327M56.773 46.854H42.637M42.454 22.18h1.298v-3.526a.653.653 0 0 0-.651-.654h-.647M57.85 34.754V32.75M36.055 36.76h13.35M36.055 32.75v3.308M48.97 32.75v3.308M27.014 39.147v1.441M57.989 39.025v1.44"/>
            <rect width="84" height="84" opacity=".4" rx="1.584"/>
        </g>
    </g>
</svg>
