<?xml version="1.0" encoding="UTF-8"?>
<svg width="16px" height="15px" viewBox="0 0 16 15" version="1.1" xmlns="http://www.w3.org/2000/svg" xmlns:xlink="http://www.w3.org/1999/xlink">
    <!-- Generator: sketchtool 55 (78076) - https://sketchapp.com -->
    <title>593B3F30-88C2-438B-B3C1-4A3117154A17</title>
    <desc>Created with sketchtool.</desc>
    <g id="Mobile-V1" stroke="none" stroke-width="1" fill="none" fill-rule="evenodd">
        <g id="3.SEO-Footer_mobile" transform="translate(-15.000000, -2737.000000)">
            <rect fill="#FFFFFF" x="0" y="0" width="320" height="3162"></rect>
            <g id="Group-10" transform="translate(0.000000, 2253.000000)">
                <rect id="Rectangle" fill="#222222" x="0" y="0" width="320" height="909"></rect>
                <g id="contact" transform="translate(15.000000, 484.000000)" opacity="0.600000024" stroke="#FFFFFF" stroke-linecap="round" stroke-linejoin="round" stroke-width="1.44">
                    <g id="phone">
                        <path d="M14.3333333,10.698 L14.3333333,12.648 C14.3348572,13.0140443 14.178032,13.3637529 13.9013852,13.6112122 C13.6247385,13.8586714 13.2539093,13.9809473 12.88,13.948 C10.8285559,13.7306665 8.85799944,13.0471939 7.12666667,11.9525 C5.51588541,10.9545315 4.1502241,9.62301172 3.12666667,8.0525 C1.99998537,6.35678259 1.29882867,4.42614646 1.08,2.417 C1.04631547,2.05356702 1.17084801,1.69306408 1.42317719,1.42355369 C1.67550637,1.1540433 2.03239616,1.00034365 2.40666667,1 L4.40666667,1 C5.07590937,0.993577898 5.6463339,1.47187886 5.74,2.118 C5.82441534,2.74204319 5.9809663,3.35477247 6.20666667,3.9445 C6.38982334,4.41956877 6.27267671,4.95512407 5.90666667,5.316 L5.06,6.1415 C6.00903698,7.76880479 7.39096945,9.11618894 9.06,10.0415 L9.90666667,9.216 C10.2767958,8.8591402 10.8260833,8.74492225 11.3133333,8.9235 C11.9181821,9.14355785 12.5466224,9.29619504 13.1866667,9.3785 C13.8570418,9.47070921 14.3501267,10.0381152 14.3333333,10.698 Z" id="Shape"></path>
                    </g>
                </g>
            </g>
        </g>
    </g>
</svg>