<svg xmlns="http://www.w3.org/2000/svg" width="18" height="18" viewBox="0 0 18 18">
    <path fill="#000" fill-rule="nonzero" d="M.818 1.636v4.91c0 .455.364.818.818.818h4.91a.814.814 0 0 0 .818-.818v-4.91a.814.814 0 0 0-.818-.818h-4.91a.814.814 0 0 0-.818.818zm-.818 0C0 .732.726 0 1.636 0h4.91c.903 0 1.636.726 1.636 1.636v4.91c0 .903-.726 1.636-1.636 1.636h-4.91A1.632 1.632 0 0 1 0 6.546v-4.91zm.818 9.818v4.91c0 .455.364.818.818.818h4.91a.814.814 0 0 0 .818-.818v-4.91a.814.814 0 0 0-.818-.818h-4.91a.814.814 0 0 0-.818.818zm-.818 0c0-.903.726-1.636 1.636-1.636h4.91c.903 0 1.636.726 1.636 1.636v4.91c0 .904-.726 1.636-1.636 1.636h-4.91A1.632 1.632 0 0 1 0 16.364v-4.91zm10.636 0v4.91c0 .455.364.818.818.818h4.91a.814.814 0 0 0 .818-.818v-4.91a.814.814 0 0 0-.818-.818h-4.91a.814.814 0 0 0-.818.818zm-.818 0c0-.903.726-1.636 1.636-1.636h4.91c.904 0 1.636.726 1.636 1.636v4.91c0 .904-.726 1.636-1.636 1.636h-4.91a1.632 1.632 0 0 1-1.636-1.636v-4.91zm.818-9.818v4.91c0 .455.364.818.818.818h4.91a.814.814 0 0 0 .818-.818v-4.91a.814.814 0 0 0-.818-.818h-4.91a.814.814 0 0 0-.818.818zm-.818 0C9.818.732 10.544 0 11.454 0h4.91C17.268 0 18 .726 18 1.636v4.91c0 .903-.726 1.636-1.636 1.636h-4.91a1.632 1.632 0 0 1-1.636-1.636v-4.91z" opacity=".5"/>
</svg>
