<svg xmlns="http://www.w3.org/2000/svg" width="47" height="50" viewBox="0 0 47 50">
    <g fill="none" fill-rule="evenodd">
        <path fill="#FFF" d="M-299-184H76v667h-375z"/>
        <g transform="translate(-18 -18)">
            <path stroke="#666" stroke-linecap="round" stroke-linejoin="round" stroke-width="1.188" d="M43.143 60.728h-4.256V55.82c0-.955.77-1.728 1.72-1.728h.814c.951 0 1.722.773 1.722 1.728v4.908zM22.963 38.23v2.415M59.703 38.424v2.414M26.512 60.728h29.766"/>
            <path stroke="#666" stroke-linecap="round" stroke-linejoin="round" stroke-width="1.188" d="M36.463 60.483v-29.11l3.298-9.692h2.817l.942 3.112.725 2.392 1.322 4.362v28.936"/>
            <path stroke="#666" stroke-linecap="round" stroke-linejoin="round" stroke-width="1.188" d="M43.303 31.303c0-1.295-1.03-2.345-2.302-2.345-1.271 0-2.302 1.05-2.302 2.345 0 1.294 1.03 2.344 2.302 2.344 1.271 0 2.302-1.05 2.302-2.344z"/>
            <path stroke="#666" stroke-linecap="round" stroke-linejoin="round" stroke-width=".792" d="M40.997 30.22v1.135l.73.682"/>
            <path stroke="#666" stroke-linecap="round" stroke-linejoin="round" stroke-width="1.188" d="M41.152 21.436V19.2M19.528 40.854h4.053l1.648 4.06v14.552"/>
            <path stroke="#666" stroke-linecap="round" stroke-linejoin="round" stroke-width="1.188" d="M19.2 45.228h.98l1.477-1.47 1.375 1.47h2.198M25.436 46.243h10.695M22.215 55.095h1.228V51.7c0-1.12-.892-2.03-1.991-2.03-.551 0-1.05.228-1.41.595M25.436 53.59h10.695M31.419 60.728h-2.416v-2.786a.98.98 0 0 1 .977-.981h.462a.98.98 0 0 1 .977.981v2.786zM63.203 40.854H58.46l-1.649 4.06v14.895"/>
            <path stroke="#666" stroke-linecap="round" stroke-linejoin="round" stroke-width="1.188" d="M63.565 45.228H61.86l-1.477-1.47-1.373 1.47h-2.2M56.605 46.243H45.909M60.762 55.095h-2.165V51.7c0-1.12.892-2.03 1.993-2.03.757 0 1.416.43 1.753 1.064M56.605 53.59H45.909M50.622 60.728h2.416v-2.786a.98.98 0 0 0-.977-.981h-.462a.98.98 0 0 0-.977.981v2.786zM25.436 48.552h11.027M45.91 48.552h10.9M36.463 39.437h9.104"/>
            <path stroke="#666" stroke-linecap="round" stroke-linejoin="round" stroke-width="1.188" d="M42.654 21.934c11.672.656 20.935 10.37 20.935 22.257 0 12.311-9.937 22.292-22.194 22.292-12.258 0-22.195-9.98-22.195-22.292 0-11.647 8.893-21.208 20.231-22.206"/>
            <rect width="84" height="84" opacity=".4" rx="1.584"/>
        </g>
    </g>
</svg>
