<svg xmlns="http://www.w3.org/2000/svg" xmlns:xlink="http://www.w3.org/1999/xlink" width="261" height="302" viewBox="0 0 261 302">
    <defs>
        <path id="a" d="M85.687 6.452L2.664 127.958c-4.073 5.962-2.541 14.098 3.42 18.17l70.517 48.184c5.961 4.074 14.098 2.543 18.172-3.42l83.023-121.505c4.072-5.962 2.541-14.097-3.42-18.171L103.857 3.032a13.018 13.018 0 0 0-7.363-2.28 13.06 13.06 0 0 0-10.808 5.7"/>
        <path id="c" d="M85.687 6.452L2.664 127.958c-4.073 5.962-2.541 14.098 3.42 18.17l70.517 48.184c5.961 4.074 14.098 2.543 18.172-3.42l83.023-121.505c4.072-5.962 2.541-14.097-3.42-18.171L103.857 3.032a13.018 13.018 0 0 0-7.363-2.28 13.06 13.06 0 0 0-10.808 5.7"/>
        <path id="d" d="M85.687 6.452L2.664 127.958c-4.073 5.962-2.541 14.098 3.42 18.17l70.517 48.184c5.961 4.074 14.098 2.543 18.172-3.42l83.023-121.505c4.072-5.962 2.541-14.097-3.42-18.171L103.857 3.032a13.018 13.018 0 0 0-7.363-2.28 13.06 13.06 0 0 0-10.808 5.7"/>
        <path id="f" d="M85.687 6.452L2.664 127.958c-4.073 5.962-2.541 14.098 3.42 18.17l70.517 48.184c5.961 4.074 14.098 2.543 18.172-3.42l83.023-121.505c4.072-5.962 2.541-14.097-3.42-18.171L103.857 3.032a13.018 13.018 0 0 0-7.363-2.28 13.06 13.06 0 0 0-10.808 5.7z"/>
        <path id="h" d="M85.687 6.452L2.664 127.958c-4.073 5.962-2.541 14.098 3.42 18.17l70.517 48.184c5.961 4.074 14.098 2.543 18.172-3.42l83.023-121.505c4.072-5.962 2.541-14.097-3.42-18.171L103.857 3.032a13.018 13.018 0 0 0-7.363-2.28 13.06 13.06 0 0 0-10.808 5.7"/>
        <path id="i" d="M63.361 3.973L4.561 62.23c-4.97 4.926-5.007 12.95-.082 17.921l100.382 101.316c4.924 4.97 12.95 5.007 17.92.083l58.799-58.259c4.97-4.925 5.008-12.95.082-17.92L81.282 4.056A12.632 12.632 0 0 0 72.278.303a12.63 12.63 0 0 0-8.918 3.67"/>
        <path id="k" d="M63.361 3.973L4.561 62.23c-4.97 4.926-5.007 12.95-.082 17.921l100.382 101.316c4.924 4.97 12.95 5.007 17.92.083l58.799-58.259c4.97-4.925 5.008-12.95.082-17.92L81.282 4.056A12.632 12.632 0 0 0 72.278.303a12.63 12.63 0 0 0-8.918 3.67"/>
        <path id="m" d="M63.361 3.973L4.561 62.23c-4.97 4.926-5.007 12.95-.082 17.921l100.382 101.316c4.924 4.97 12.95 5.007 17.92.083l58.799-58.259c4.97-4.925 5.008-12.95.082-17.92L81.282 4.056A12.632 12.632 0 0 0 72.278.303a12.63 12.63 0 0 0-8.918 3.67"/>
        <path id="o" d="M63.361 3.973L4.561 62.23c-4.97 4.926-5.007 12.95-.082 17.921l100.382 101.316c4.924 4.97 12.95 5.007 17.92.083l58.799-58.259c4.97-4.925 5.008-12.95.082-17.92L81.282 4.056A12.632 12.632 0 0 0 72.278.303a12.63 12.63 0 0 0-8.918 3.67z"/>
        <path id="q" d="M63.361 3.973L4.561 62.23c-4.97 4.926-5.007 12.95-.082 17.921l100.382 101.316c4.924 4.97 12.95 5.007 17.92.083l58.799-58.259c4.97-4.925 5.008-12.95.082-17.92L81.282 4.056A12.632 12.632 0 0 0 72.278.303a12.63 12.63 0 0 0-8.918 3.67"/>
        <path id="s" d="M63.361 3.973L4.561 62.23c-4.97 4.926-5.007 12.95-.082 17.921l100.382 101.316c4.924 4.97 12.95 5.007 17.92.083l58.799-58.259c4.97-4.925 5.008-12.95.082-17.92L81.282 4.056A12.632 12.632 0 0 0 72.278.303a12.63 12.63 0 0 0-8.918 3.67"/>
        <path id="u" d="M63.361 3.973L4.561 62.23c-4.97 4.926-5.007 12.95-.082 17.921l100.382 101.316c4.924 4.97 12.95 5.007 17.92.083l58.799-58.259c4.97-4.925 5.008-12.95.082-17.92L81.282 4.056A12.632 12.632 0 0 0 72.278.303a12.63 12.63 0 0 0-8.918 3.67"/>
        <path id="w" d="M63.361 3.973L4.561 62.23c-4.97 4.926-5.007 12.95-.082 17.921l100.382 101.316c4.924 4.97 12.95 5.007 17.92.083l58.799-58.259c4.97-4.925 5.008-12.95.082-17.92L81.282 4.056A12.632 12.632 0 0 0 72.278.303a12.63 12.63 0 0 0-8.918 3.67z"/>
        <path id="y" d="M63.361 3.973L4.561 62.23c-4.97 4.926-5.007 12.95-.082 17.921l100.382 101.316c4.924 4.97 12.95 5.007 17.92.083l58.799-58.259c4.97-4.925 5.008-12.95.082-17.92L81.282 4.056A12.632 12.632 0 0 0 72.278.303a12.63 12.63 0 0 0-8.918 3.67z"/>
        <path id="A" d="M63.361 3.973L4.561 62.23c-4.97 4.926-5.007 12.95-.082 17.921l100.382 101.316c4.924 4.97 12.95 5.007 17.92.083l58.799-58.259c4.97-4.925 5.008-12.95.082-17.92L81.282 4.056A12.632 12.632 0 0 0 72.278.303a12.63 12.63 0 0 0-8.918 3.67z"/>
        <path id="C" d="M63.361 3.973L4.561 62.23c-4.97 4.926-5.007 12.95-.082 17.921l100.382 101.316c4.924 4.97 12.95 5.007 17.92.083l58.799-58.259c4.97-4.925 5.008-12.95.082-17.92L81.282 4.056A12.632 12.632 0 0 0 72.278.303a12.63 12.63 0 0 0-8.918 3.67"/>
        <path id="E" d="M.401.71h170.547v276.194H.401z"/>
        <path id="G" d="M0 301.21h421.075V.71H0z"/>
        <path id="I" d="M0 .778h95.67v127.447H0z"/>
    </defs>
    <g fill="none" fill-rule="evenodd">
        <g transform="matrix(-1 0 0 1 28.04 60.26)">
            <mask id="b" fill="#fff">
                <use xlink:href="#a"/>
            </mask>
            <path fill="#FA6E5B" d="M103.859 3.032l70.516 48.184c5.963 4.073 7.493 12.21 3.42 18.171L94.773 190.893c-4.074 5.961-12.21 7.493-18.172 3.419L6.085 146.129c-5.963-4.073-7.494-12.21-3.42-18.172L85.687 6.451c4.073-5.96 12.21-7.492 18.172-3.419" mask="url(#b)"/>
        </g>
        <g transform="matrix(-1 0 0 1 28.04 60.26)">
            <mask id="e" fill="#fff">
                <use xlink:href="#d"/>
            </mask>
            <path fill="#FECC52" d="M36.148 108.968l20.835 14.236a2.663 2.663 0 0 1 .693 3.69L41.193 151.02a2.665 2.665 0 0 1-3.692.695l-20.833-14.236a2.664 2.664 0 0 1-.695-3.692l16.483-24.123a2.665 2.665 0 0 1 3.692-.695" mask="url(#e)"/>
        </g>
        <g transform="matrix(-1 0 0 1 28.04 60.26)">
            <mask id="g" fill="#fff">
                <use xlink:href="#f"/>
            </mask>
            <path fill="#FE9C00" d="M44.881 129.143c.654.447.823 1.346.376 2l-4.62 6.762a1.442 1.442 0 0 1-2 .376l-9.868-6.743a1.441 1.441 0 0 1-.376-2l4.62-6.761a1.44 1.44 0 0 1 2-.377l9.868 6.743zm.131-14.12l-2.01-1.372-5.245 7.675-1.37-.936a3.878 3.878 0 0 0-5.384 1.013l-.062.091-4.478-3.06-1.374 2.01 4.478 3.06-1.624 2.376-4.477-3.059-1.374 2.01 4.477 3.06-.186.274a3.878 3.878 0 0 0 1.012 5.383l1.37.937-5.244 7.676 2.01 1.373 5.245-7.676 3.472 2.372-5.244 7.677 2.01 1.373 5.244-7.676 1.006.687a3.88 3.88 0 0 0 5.384-1.012l.187-.275 4.478 3.06 1.373-2.011-4.477-3.06 1.623-2.374 4.477 3.058 1.374-2.01-4.478-3.059.062-.092a3.878 3.878 0 0 0-1.012-5.383l-1.005-.687 5.244-7.675-2.01-1.374-5.245 7.676-3.472-2.373 5.245-7.677z" mask="url(#g)"/>
        </g>
        <g transform="matrix(-1 0 0 1 229.15 49.34)">
            <mask id="j" fill="#fff">
                <use xlink:href="#i"/>
            </mask>
            <path fill="#352E73" d="M181.58 123.291l-58.8 58.258c-4.97 4.925-12.994 4.888-17.92-.083L4.48 80.151c-4.925-4.97-4.888-12.995.083-17.92l58.8-58.258c4.97-4.925 12.994-4.888 17.919.083L181.663 105.37c4.925 4.97 4.888 12.995-.083 17.92" mask="url(#j)"/>
            <mask id="l" fill="#fff">
                <use xlink:href="#k"/>
            </mask>
            <path fill="#514D96" d="M141.584 162.919l-18.804 18.63c-4.97 4.925-12.994 4.888-17.92-.083L4.48 80.151C-.446 75.18-.41 67.156 4.56 62.23l20.78-20.588c11.281 3.81 21.708 9.381 31.035 16.386 14.161 10.636 25.79 24.575 34.038 40.668 13.276 25.909 28.852 49.203 51.17 64.222" mask="url(#l)"/>
            <mask id="n" fill="#fff">
                <use xlink:href="#m"/>
            </mask>
            <path fill="#FECC52" d="M93.204 39.406L75.832 56.618a2.581 2.581 0 0 1-3.64-.017l-19.93-20.115a2.581 2.581 0 0 1 .017-3.64L69.65 15.633a2.581 2.581 0 0 1 3.64.017l19.93 20.116a2.581 2.581 0 0 1-.017 3.64" mask="url(#n)"/>
            <mask id="p" fill="#fff">
                <use xlink:href="#o"/>
            </mask>
            <path fill="#FE9C00" d="M72.402 44.012a1.398 1.398 0 0 1-1.972-.01l-5.587-5.638a1.397 1.397 0 0 1 .01-1.972l8.228-8.153a1.398 1.398 0 0 1 1.972.01l5.587 5.638c.54.545.536 1.43-.01 1.972l-8.228 8.153zm13.411 2.716l1.676-1.66-6.34-6.4 1.142-1.134a3.758 3.758 0 0 0 .025-5.309l-.076-.075 3.734-3.7-1.661-1.675-3.733 3.699-1.963-1.981 3.734-3.7-1.662-1.676-3.733 3.7-.227-.229a3.758 3.758 0 0 0-5.308-.025l-1.143 1.132-6.341-6.4-1.677 1.661 6.341 6.4-2.894 2.869-6.342-6.4-1.676 1.66 6.34 6.401-.838.83a3.757 3.757 0 0 0-.023 5.31l.225.227-3.732 3.7 1.66 1.676 3.733-3.7 1.963 1.982-3.734 3.699 1.661 1.676 3.734-3.699.075.076a3.758 3.758 0 0 0 5.31.025l.837-.83 6.341 6.4 1.677-1.66-6.341-6.402 2.895-2.868 6.341 6.4z" mask="url(#p)"/>
            <mask id="r" fill="#fff">
                <use xlink:href="#q"/>
            </mask>
            <path fill="#8391F4" d="M99.706 161.229a11.799 11.799 0 0 1-7.993-3.5c-4.601-4.644-4.567-12.14.078-16.743 4.644-4.601 12.141-4.567 16.743.079a11.796 11.796 0 0 1 3.424 8.024 11.802 11.802 0 0 0-8.75 3.42 11.805 11.805 0 0 0-3.502 8.72" mask="url(#r)"/>
            <g>
                <mask id="t" fill="#fff">
                    <use xlink:href="#s"/>
                </mask>
                <path fill="#FFF" d="M108.456 157.807a11.803 11.803 0 0 1-8.75 3.422 11.808 11.808 0 0 1 3.501-8.719 11.803 11.803 0 0 1 8.751-3.42 11.8 11.8 0 0 1-3.502 8.717" mask="url(#t)"/>
            </g>
            <g>
                <mask id="v" fill="#fff">
                    <use xlink:href="#u"/>
                </mask>
                <path fill="#FECC52" d="M119.873 169.33c-4.644 4.602-12.14 4.568-16.743-.077a11.798 11.798 0 0 1-3.424-8.024 11.804 11.804 0 0 0 8.75-3.422 11.804 11.804 0 0 0 3.502-8.718 11.793 11.793 0 0 1 7.993 3.498c4.602 4.645 4.567 12.142-.078 16.744" mask="url(#v)"/>
            </g>
            <g>
                <mask id="x" fill="#fff">
                    <use xlink:href="#w"/>
                </mask>
                <path fill="#514D96" d="M136.379 145.937c4.13-.676 8.368-1.99 12.682-3.925l5.441 7.705a38.376 38.376 0 0 1-18.123-3.78zM117.64 97.523l5.452 7.72c-3.27 3.42-5.928 6.98-7.946 10.65a38.361 38.361 0 0 1 2.494-18.37zm53.239-19.476a156.724 156.724 0 0 0-13.426 5.021l-6.648-9.414a38.354 38.354 0 0 1 20.074 4.393zm17.209 48.398l-6.64-9.4a156.284 156.284 0 0 0 9.217-10.966 38.36 38.36 0 0 1-2.577 20.366zm-19.745 3.152a125.606 125.606 0 0 0 6.118-5.448 145.098 145.098 0 0 0 4.448-4.412l7.373 10.44a37.821 37.821 0 0 1-9.56 11.287l-8.38-11.867zm-13.728 9.606c3.595-2.028 7.237-4.48 10.896-7.326l8.269 11.709a37.838 37.838 0 0 1-15.11 5.744l-6.3-8.918a72.335 72.335 0 0 0 2.245-1.209zm-14.534-16.193l12.789-9.032 10.546 14.933c-3.562 2.781-7.1 5.167-10.583 7.133-.862.486-1.72.942-2.575 1.376l-10.177-14.41zm-2.963 2.092l9.809 13.89c-5.475 2.376-10.784 3.66-15.85 3.832a37.836 37.836 0 0 1-8.116-7.724l14.157-9.998zm-2.093-2.963l-14.156 9.998a37.863 37.863 0 0 1-4.56-10.21c1.857-4.72 4.843-9.298 8.916-13.664l9.8 13.876zm-5.074-18.432c3.024-2.634 6.465-5.179 10.288-7.612l10.537 14.92-12.788 9.032-10.168-14.397a66.344 66.344 0 0 1 2.131-1.943zm18.47-16.43c-2.505 1.275-4.9 2.591-7.181 3.946l-8.39-11.88a37.814 37.814 0 0 1 13.834-5.235l7.382 10.453a144.594 144.594 0 0 0-5.645 2.717zm17.016 13.384l-11.697 8.26-10.4-14.725c2.12-1.25 4.341-2.47 6.664-3.654a140.722 140.722 0 0 1 6.195-2.96l9.238 13.079zm2.963-2.093l-8.802-12.462c7.262-3.048 13.156-4.87 15.402-5.525a37.86 37.86 0 0 1 8.024 7.659L168.4 98.568zm2.093 2.963l14.624-10.328a37.862 37.862 0 0 1 4.54 10.142c-1.37 1.901-5.055 6.84-10.353 12.662l-8.811-12.476zm1.47 19.986a122.127 122.127 0 0 1-5.722 5.106l-10.408-14.738 11.696-8.261 9.247 13.094a140.223 140.223 0 0 1-4.813 4.8zm-42.097-40.11l8.28 11.722c-3.908 2.496-7.436 5.109-10.549 7.818a74.163 74.163 0 0 0-1.89 1.71l-6.307-8.931a37.824 37.824 0 0 1 10.466-12.32zm64.24 37.341c1.891-10.982-.607-22.043-7.037-31.145-6.428-9.101-16.016-15.157-26.998-17.047-10.982-1.89-22.043.61-31.145 7.037-9.102 6.429-15.156 16.016-17.047 26.998-1.89 10.983.609 22.043 7.037 31.146 6.428 9.102 16.017 15.156 26.999 17.046 10.98 1.892 22.042-.609 31.144-7.036 9.102-6.428 15.157-16.017 17.047-26.999z" mask="url(#x)"/>
            </g>
            <g>
                <mask id="z" fill="#fff">
                    <use xlink:href="#y"/>
                </mask>
                <path fill="#C9B9FE" d="M68.326 113.503l-47.56-48.001 4.877-4.831 47.559 48z" mask="url(#z)"/>
            </g>
            <g>
                <mask id="B" fill="#fff">
                    <use xlink:href="#A"/>
                </mask>
                <path fill="#C9B9FE" d="M43.94 105.655l-31.555-31.85 4.877-4.83 31.555 31.848z" mask="url(#B)"/>
            </g>
            <mask id="D" fill="#fff">
                <use xlink:href="#C"/>
            </mask>
            <text fill="#FFF" font-family="LucidaGrande, Lucida Grande" font-size=".113" mask="url(#D)">
                <tspan x="32.039" y="53.314">00 000 000 000 00</tspan>
            </text>
        </g>
        <g transform="matrix(-1 0 0 1 261 .2)">
            <g transform="translate(143.78)">
                <mask id="F" fill="#fff">
                    <use xlink:href="#E"/>
                </mask>
                <path fill="#5F5EA9" d="M162.415 276.904H8.935a8.534 8.534 0 0 1-8.534-8.533V9.243A8.534 8.534 0 0 1 8.935.71h153.48a8.533 8.533 0 0 1 8.533 8.533v259.13a8.533 8.533 0 0 1-8.533 8.532" mask="url(#F)"/>
            </g>
            <mask id="H" fill="#fff">
                <use xlink:href="#G"/>
            </mask>
            <path fill="#FFF" d="M155.04 236.151h148.833V13.792H155.04z" mask="url(#H)"/>
            <path fill="#F1F1F1" d="M268.329 236.152H155.04V13.792h33.506c9.189 25.775 12.758 53.329 17.805 80.095 2.89 15.292 6.126 30.551 10.838 45.39 11.14 35.125 29.926 66.603 51.139 96.875" mask="url(#H)"/>
            <path fill="#FFF" d="M244.548 256.781c0 8.335-6.758 15.093-15.093 15.093s-15.093-6.758-15.093-15.093 6.758-15.093 15.093-15.093 15.093 6.758 15.093 15.093" mask="url(#H)"/>
            <path fill="#FA6E5B" d="M318.572 41.459H139.975l14.846-29.179h148.905z" mask="url(#H)"/>
            <path fill="#FA8775" d="M165.49 41.46v14.337c0 6.782-5.739 12.326-12.758 12.326-7.019 0-12.756-5.544-12.756-12.326V41.46h25.513z" mask="url(#H)"/>
            <path fill="#FBC03F" d="M191.003 41.46v14.337c0 6.782-5.738 12.326-12.758 12.326-7.017 0-12.756-5.544-12.756-12.326V41.46h25.514z" mask="url(#H)"/>
            <path fill="#FA8775" d="M216.517 41.46v14.337c0 6.782-5.739 12.326-12.758 12.326-7.018 0-12.756-5.544-12.756-12.326V41.46h25.514z" mask="url(#H)"/>
            <path fill="#FBC03F" d="M242.03 41.46v14.337c0 6.782-5.738 12.326-12.757 12.326-7.018 0-12.756-5.544-12.756-12.326V41.46h25.513z" mask="url(#H)"/>
            <path fill="#FA8775" d="M267.544 41.46v14.337c0 6.782-5.738 12.326-12.757 12.326-7.018 0-12.757-5.544-12.757-12.326V41.46h25.514z" mask="url(#H)"/>
            <path fill="#FBB223" d="M198.174 12.28l-7.18 29.178h-25.57l10.393-29.178zM241.974 41.459h-25.53l1.57-29.179h23.295z" mask="url(#H)"/>
            <path fill="#FBC03F" d="M212.2 96c0 11.214-9.09 20.304-20.304 20.304-11.213 0-20.303-9.09-20.303-20.303 0-11.213 9.09-20.304 20.303-20.304 11.213 0 20.304 9.09 20.304 20.304" mask="url(#H)"/>
            <path fill="#FA6E5B" d="M275.927 107.324h-30.148c-6.228 0-11.323-5.096-11.323-11.323 0-6.228 5.095-11.323 11.323-11.323h30.148c6.228 0 11.322 5.095 11.322 11.323 0 6.227-5.094 11.323-11.322 11.323" mask="url(#H)"/>
            <path fill="#FFF" d="M266.173 102.55a.537.537 0 0 1-.534.537.537.537 0 0 1-.534-.537v-5.91c0-.295.24-.536.534-.536.293 0 .534.241.534.537v5.91zm-3.07 0c0 .296-.24.537-.535.537a.537.537 0 0 1-.534-.537v-5.91c0-.295.24-.536.534-.536.294 0 .535.241.535.537v5.91zm-3.07 0a.538.538 0 0 1-.535.537.537.537 0 0 1-.533-.537v-5.91c0-.295.24-.536.533-.536.294 0 .535.241.535.537v5.91zm-3.07 0c0 .296-.24.537-.534.537a.537.537 0 0 1-.535-.537v-5.91c0-.295.24-.536.535-.536.293 0 .534.241.534.537v5.91zm13.04-8.477c0-.587-.478-1.069-1.062-1.069h-1.857l-2.5-4.82a.65.65 0 0 0-.875-.277.657.657 0 0 0-.276.88l2.187 4.217h-9.337l2.186-4.216a.65.65 0 1 0-1.151-.603l-2.5 4.82h-2.053a1.069 1.069 0 0 0-.108 2.132l1.53 8.687c.036.2.208.344.407.344h12.753c.204 0 .377-.15.408-.354l1.312-8.68a1.07 1.07 0 0 0 .936-1.061z" mask="url(#H)"/>
            <path fill="#FBC03F" d="M212.2 144.124c0 11.213-9.09 20.304-20.304 20.304-11.213 0-20.303-9.09-20.303-20.304 0-11.213 9.09-20.304 20.303-20.304 11.213 0 20.304 9.091 20.304 20.304" mask="url(#H)"/>
            <path fill="#FA6E5B" d="M275.927 155.447h-30.148c-6.228 0-11.323-5.096-11.323-11.323 0-6.228 5.095-11.323 11.323-11.323h30.148c6.228 0 11.322 5.095 11.322 11.323 0 6.227-5.094 11.323-11.322 11.323" mask="url(#H)"/>
            <path fill="#FFF" d="M266.173 150.674a.538.538 0 0 1-.534.538.538.538 0 0 1-.534-.538v-5.91c0-.296.24-.537.534-.537.293 0 .534.241.534.537v5.91zm-3.07 0c0 .295-.24.538-.535.538a.538.538 0 0 1-.534-.538v-5.91c0-.296.24-.537.534-.537.294 0 .535.241.535.537v5.91zm-3.07 0a.538.538 0 0 1-.535.538.537.537 0 0 1-.533-.538v-5.91c0-.296.24-.537.533-.537.294 0 .535.241.535.537v5.91zm-3.07 0c0 .295-.24.538-.534.538a.538.538 0 0 1-.535-.538v-5.91c0-.296.24-.537.535-.537.293 0 .534.241.534.537v5.91zm13.04-8.477c0-.588-.478-1.07-1.062-1.07h-1.857l-2.5-4.82a.65.65 0 0 0-.875-.277.657.657 0 0 0-.276.88l2.187 4.218h-9.337l2.186-4.217a.65.65 0 1 0-1.151-.603l-2.5 4.82h-2.053a1.069 1.069 0 0 0-.108 2.132l1.53 8.688c.036.199.208.344.407.344h12.753c.204 0 .377-.15.408-.354l1.312-8.68c.526-.064.936-.516.936-1.06z" mask="url(#H)"/>
            <path fill="#FBC03F" d="M212.2 192.248c0 11.213-9.09 20.304-20.304 20.304-11.213 0-20.303-9.091-20.303-20.304s9.09-20.304 20.303-20.304c11.213 0 20.304 9.09 20.304 20.304" mask="url(#H)"/>
            <path fill="#FA6E5B" d="M275.927 203.57h-30.148c-6.228 0-11.323-5.095-11.323-11.322 0-6.228 5.095-11.324 11.323-11.324h30.148c6.228 0 11.322 5.096 11.322 11.324 0 6.227-5.094 11.322-11.322 11.322" mask="url(#H)"/>
            <path fill="#FFF" d="M266.173 198.797a.538.538 0 0 1-.534.538.538.538 0 0 1-.534-.538v-5.91c0-.294.24-.536.534-.536.293 0 .534.242.534.537v5.91zm-3.07 0c0 .296-.24.538-.535.538a.538.538 0 0 1-.534-.538v-5.91c0-.294.24-.536.534-.536.294 0 .535.242.535.537v5.91zm-3.07 0a.538.538 0 0 1-.535.538.537.537 0 0 1-.533-.538v-5.91c0-.294.24-.536.533-.536.294 0 .535.242.535.537v5.91zm-3.07 0c0 .296-.24.538-.534.538a.538.538 0 0 1-.535-.538v-5.91c0-.294.24-.536.535-.536.293 0 .534.242.534.537v5.91zm13.04-8.477c0-.588-.478-1.069-1.062-1.069h-1.857l-2.5-4.82a.65.65 0 0 0-.875-.278.658.658 0 0 0-.276.882l2.187 4.216h-9.337l2.186-4.216a.65.65 0 1 0-1.151-.604l-2.5 4.82h-2.053a1.068 1.068 0 0 0-.108 2.132l1.53 8.688a.415.415 0 0 0 .407.343h12.753c.204 0 .377-.15.408-.352l1.312-8.681a1.07 1.07 0 0 0 .936-1.06zM188.027 184.971h7.238v-3.563h-7.238z" mask="url(#H)"/>
            <path fill="#514D96" d="M201.297 188.104l-.893 8.212-.594 5.473c0 .59-.138 1.148-.388 1.646a3.977 3.977 0 0 1-2.283 1.98 4.11 4.11 0 0 1-1.334.222h-8.319c-2.203 0-4.005-1.733-4.005-3.848l-1.072-9.88-.412-3.805c0-.312.038-.617.115-.91a3.882 3.882 0 0 1 1.911-2.428 4.095 4.095 0 0 1 1.979-.507h11.287c2.205 0 4.008 1.73 4.008 3.845" mask="url(#H)"/>
            <path fill="#F35342" d="M197.075 179.762v1.866c0 .271-.23.492-.511.492h-9.836a.503.503 0 0 1-.511-.492v-1.866c0-.27.23-.492.511-.492h9.836c.28 0 .511.222.511.492" mask="url(#H)"/>
            <path fill="#FA6E5B" d="M197.075 179.762v1.866c0 .271-.23.492-.511.492h-7.277a.503.503 0 0 1-.511-.492v-1.866c0-.27.23-.492.511-.492h7.277c.28 0 .511.222.511.492" mask="url(#H)"/>
            <g fill="#FFF" mask="url(#H)">
                <path d="M197.14 205.415a4.13 4.13 0 0 1-1.334.221h-2.076L182.41 191.91l-.412-3.805c0-.312.038-.617.115-.909l15.027 18.22zM200.404 196.316l-.593 5.474c0 .588-.139 1.146-.39 1.645l-15.397-18.669a4.081 4.081 0 0 1 1.977-.507h4.461l9.942 12.057z"/>
            </g>
            <path fill="#FBC03F" d="M195.357 198.51h-7.423a2.606 2.606 0 0 1-2.598-2.598v-5.493a2.606 2.606 0 0 1 2.598-2.598h7.423c1.43 0 2.598 1.17 2.598 2.598v5.493a2.605 2.605 0 0 1-2.598 2.598" mask="url(#H)"/>
            <path fill="#FFF" d="M187.385 189.306a.34.34 0 0 0-.346.333v7.053a.34.34 0 0 0 .346.332h8.522a.34.34 0 0 0 .346-.332v-7.053a.34.34 0 0 0-.346-.333h-8.522zm8.522 8.456h-8.522c-.614 0-1.114-.48-1.114-1.07v-7.053c0-.59.5-1.07 1.114-1.07h8.522c.614 0 1.114.48 1.114 1.07v7.053c0 .59-.5 1.07-1.114 1.07zM204.813 139.65l-3.209 4.316a.223.223 0 0 1-.336.029l-2.037-1.965a.225.225 0 0 0-.382.161v12.846a.226.226 0 0 1-.225.224h-13.681a.225.225 0 0 1-.225-.224v-12.846c0-.2-.241-.301-.383-.161l-2.037 1.965a.223.223 0 0 1-.336-.029l-3.205-4.316a.22.22 0 0 1 .016-.287l5.879-6.217a.221.221 0 0 1 .16-.07h4.048c.117 0 .212.09.22.208.007.098.017.194.033.291.404 3.048 4.935 3.048 5.344 0 .013-.097.022-.193.03-.291a.222.222 0 0 1 .22-.208h4.046c.061 0 .121.025.162.07l5.879 6.217c.075.079.082.202.019.287" mask="url(#H)"/>
            <path fill="#F87F74" d="M184.718 146.997h14.13v-2.848h-14.13zM184.718 151.427h14.13v-2.848h-14.13zM195.09 84.988V95.79h-5.129V83.703c0-.93.978-1.534 1.808-1.119l.875.437 1.781.89c.408.204.665.622.665 1.077" mask="url(#H)"/>
            <path fill="#FA6E5B" d="M194.515 95.79h-4.553V83.702c0-.929.977-1.533 1.806-1.118l.876.437a8.605 8.605 0 0 0-.135.771c-.197 1.627-.19 3.295-.136 4.93.048 1.502.18 3.021.674 4.44.333.954.835 1.842 1.468 2.628" mask="url(#H)"/>
            <path fill="#5F5EA9" d="M196.373 95.147v12.187c0 2.045-1.618 2.532-3.639 2.562-.068.002-.138.002-.209.002-2.115 0-3.847-.449-3.847-2.564V95.147c0-2.116 1.732-1.924 3.847-1.924h.21c.251-.003.496-.005.732-.005 1.67 0 2.906.14 2.906 1.929" mask="url(#H)"/>
            <path fill="#C9B9FE" d="M188.678 98.354h7.695v-2.566h-7.695z" mask="url(#H)"/>
            <path fill="#352E73" d="M192.734 93.223v16.673c-.068.002-.138.002-.208.002-2.116 0-3.848-.449-3.848-2.565V95.147c0-2.115 1.732-1.924 3.848-1.924h.208z" mask="url(#H)"/>
        </g>
        <g>
            <g transform="matrix(-1 0 0 1 261 123.05)">
                <mask id="J" fill="#fff">
                    <use xlink:href="#I"/>
                </mask>
                <path fill="#FA8775" d="M24.64 73.537c4.12-2.634 8.7-4.757 13.494-5.797 2.112-.458 4.27-.669 6.425-.418.57.065 1.21.153 1.855.285-4.165-3.933-8.247-7.956-11.983-12.245-.02.017-.035.035-.057.052-4.187 3.223-9.222 4.907-14.504 4.925-4.62.018-10.183-1.251-12.558-5.627-.313-.577.033-1.402.62-1.643 4.518-1.865 9.401-3.144 14.304-3.321 2.16-.078 4.322.096 6.399.723.774.234 1.674.533 2.52.935-3.348-4.272-6.303-8.837-8.636-13.852-.098.006-.192 0-.28-.015-4.439.48-9.065.235-13.001-2.042C5.127 33.12 1.668 29.917.04 25.39c-.179-.496.27-.952.76-.884 4.453.616 8.79 1.973 12.779 4.052a32.337 32.337 0 0 1 5.374 3.5c.634.513 1.31 1.08 1.95 1.696a51.769 51.769 0 0 1-2.005-6.441 1.63 1.63 0 0 1-.4-.834c-.24-.434-.455-.886-.676-1.332a46.504 46.504 0 0 1-1.796-4.145c-.886-2.324-1.372-4.687-1.377-7.156-.006-2.376.41-4.71.97-6.995.31-1.256.678-2.496 1.066-3.728.307-.975.637-1.98 1.706-2.283.467-.133.959-.068 1.287.347 2.915 3.685 4.366 8.158 4.448 12.797.04 2.281-.236 4.523-.754 6.728-.51 2.179-1.13 4.695-2.413 6.529-.022.03-.046.056-.068.085a47.53 47.53 0 0 0 1.778 5.694c.55-2.596 1.889-5.102 3.316-7.232 2.489-3.716 5.822-6.783 9.262-9.603 1.037-.85 3.283-2.843 4.659-1.637 1.123.985.84 3.372.612 4.678-.664 3.797-3.256 7.322-5.736 10.16-2.894 3.31-6.38 5.92-10.43 7.552 2.293 4.83 5.235 9.33 8.57 13.515-.445-3.101.377-6.454 1.792-9.165 2.223-4.257 5.567-8.156 8.905-11.588 1.066-1.095 2.697-2.366 3.893-.676.998 1.413.963 3.89.972 5.564.019 3.982-1.226 7.89-3.15 11.374-2.042 3.7-5.018 7.018-8.963 8.558.19.211.378.424.57.634 3.602 3.945 7.477 7.614 11.422 11.211a20.014 20.014 0 0 1-.257-2.257c-.142-2.164.177-4.31.743-6.396 1.282-4.736 3.632-9.204 6.471-13.183.369-.516 1.249-.667 1.74-.232 3.726 3.304 3.702 9.01 2.64 13.507-1.126 4.773-3.606 9.014-7.227 12.277 1.956 1.76 3.911 3.517 5.842 5.299a168.005 168.005 0 0 1 8.644 8.55c-.588-1.642-1.058-3.282-1.29-5.08-.316-2.44-.235-4.924.141-7.354.735-4.753 2.573-9.265 4.413-13.678.395-.95 1.728-.971 2.286-.187 3.293 4.635 4.987 10.24 4.597 15.93-.331 4.81-2.278 11.766-7.427 13.347a126.102 126.102 0 0 1 8.22 10.26 125.739 125.739 0 0 1 4.224 6.29 21.73 21.73 0 0 1 .076-3.672c.27-2.447.936-4.842 1.875-7.114 1.836-4.444 4.686-8.395 7.516-12.25.61-.829 1.909-.535 2.265.36 2.107 5.281 2.43 11.126.706 16.564-1.37 4.33-4.588 10.169-9.45 11.1a131.219 131.219 0 0 1 8.511 18.032c.62 1.622-1.936 2.512-2.551.883a127.597 127.597 0 0 0-8.798-18.592c-2.424 4.734-9.521 5.552-14.284 5.131-5.682-.502-10.953-3.051-15.016-7.029-.688-.673-.459-1.986.54-2.228 4.648-1.129 9.391-2.237 14.2-2.223 2.458.01 4.926.317 7.286 1.01 2.032.597 3.802 1.478 5.586 2.501a125.317 125.317 0 0 0-3.468-5.365c-2.924-4.275-6.12-8.298-9.522-12.143-1.734 4.588-7.947 6.824-12.404 7.498-5.639.853-11.363-.38-16.25-3.286-.828-.491-.915-1.822-.001-2.292 4.25-2.193 8.597-4.392 13.274-5.512 2.39-.572 4.86-.854 7.318-.739 1.686.08 3.253.375 4.82.78a186.33 186.33 0 0 0-6.863-6.892c-2.238-2.14-4.523-4.257-6.809-6.383-3.499 3.668-8 6.069-13.003 6.986-4.545.833-10.244.568-13.357-3.32-.41-.513-.213-1.385.32-1.726" mask="url(#J)"/>
            </g>
            <path fill="#FFF" d="M159.6 167.557c4.506 0 8.17 3.665 8.17 8.17v36.627c0 4.504-3.664 8.169-8.17 8.169h-8.224c-4.505 0-8.17-3.665-8.17-8.169v-36.627c0-4.505 3.665-8.17 8.17-8.17h8.224zm-8.224 58.34h8.224c7.469 0 13.543-6.075 13.543-13.543v-36.627c0-7.468-6.074-13.544-13.543-13.544h-8.224c-7.469 0-13.543 6.076-13.543 13.544v36.627c0 7.468 6.074 13.542 13.543 13.542z"/>
            <path fill="#AE98FE" d="M115.232 184.437a1.691 1.691 0 0 1 1.683-1.528h67.551c.871 0 1.599.662 1.683 1.528l8.884 91.804a1.691 1.691 0 0 1-1.682 1.854H108.03c-.999 0-1.78-.86-1.684-1.854l8.885-91.804z"/>
            <path fill="#C9B9FE" d="M116.475 278.095h85.318c1 0 1.781-.86 1.685-1.853l-8.886-91.805a1.69 1.69 0 0 0-1.682-1.528h-67.551c-.871 0-1.6.663-1.683 1.528l-8.72 90.106-.166 1.699a1.692 1.692 0 0 0 1.685 1.853"/>
            <path fill="#E2DCFD" d="M116.475 278.095h85.318c1 0 1.781-.86 1.685-1.853l-8.886-91.805a1.69 1.69 0 0 0-1.682-1.528h-4.901c-8.548 24.046-31.97 77.326-73.053 91.634l-.166 1.699a1.692 1.692 0 0 0 1.685 1.853"/>
            <path fill="#352E73" d="M129.883 207.508a6.215 6.215 0 0 1 6.208 6.208v27.835a6.215 6.215 0 0 1-6.208 6.208h-6.251a6.215 6.215 0 0 1-6.208-6.208v-27.835a6.215 6.215 0 0 1 6.208-6.208h6.25zm-6.251 44.336h6.25c5.675 0 10.293-4.618 10.293-10.293v-27.835c0-5.675-4.618-10.291-10.292-10.291h-6.251c-5.675 0-10.292 4.616-10.292 10.291v27.835c0 5.675 4.617 10.293 10.292 10.293z"/>
            <path fill="#F35342" d="M96.164 220.336a1.284 1.284 0 0 1 1.279-1.16h51.336c.662 0 1.215.501 1.28 1.16l6.751 69.767c.073.755-.52 1.41-1.28 1.41H90.692a1.285 1.285 0 0 1-1.278-1.41l6.751-69.767z"/>
            <path fill="#FA6E5B" d="M97.11 291.513h64.837c.76 0 1.354-.654 1.281-1.41l-6.753-69.767a1.281 1.281 0 0 0-1.279-1.16H103.86c-.662 0-1.215.503-1.279 1.16l-6.627 68.477-.125 1.29a1.285 1.285 0 0 0 1.28 1.41"/>
            <path fill="#FA8775" d="M97.11 291.513h64.837c.76 0 1.354-.654 1.281-1.41l-6.753-69.767a1.281 1.281 0 0 0-1.279-1.16h-3.725c-6.495 18.273-24.295 58.763-55.517 69.637l-.125 1.29a1.285 1.285 0 0 0 1.28 1.41"/>
            <path fill="#FBC03F" d="M162.73 201.625v46.738a3.726 3.726 0 0 0 3.728 3.728h22.059c2.06 0 3.728-1.67 3.728-3.728v-46.73a3.729 3.729 0 0 0-1.628-3.082l-2.382-1.626-8.682-5.922a3.73 3.73 0 0 0-4.211.004l-10.994 7.544a3.728 3.728 0 0 0-1.619 3.074"/>
            <path fill="#FE9022" d="M164.799 251.702c.5.25 1.063.39 1.66.39h22.057c2.06 0 3.73-1.67 3.73-3.729v-46.73a3.728 3.728 0 0 0-1.629-3.082l-2.383-1.626c-.387 3.756-.438 7.568-.872 11.322-.981 8.479-2.789 16.98-6.714 24.626-3.782 7.36-9.377 13.62-15.849 18.829"/>
            <path fill="#FFF" d="M173.474 199.403a4.013 4.013 0 1 0 8.026 0 4.013 4.013 0 0 0-8.026 0"/>
            <path fill="#FBC03F" d="M175.286 199.403a2.201 2.201 0 1 0 4.402 0 2.201 2.201 0 0 0-4.402 0"/>
            <path fill="#AE98FE" d="M177.487 200.827c.748 0 1.36-.612 1.36-1.36v-17.994c0-.748-.612-1.36-1.36-1.36-.747 0-1.36.612-1.36 1.36v17.995c0 .747.613 1.36 1.36 1.36"/>
        </g>
        <text fill="#FFF" font-family="LucidaGrande, Lucida Grande" font-size="21.332" transform="matrix(-1 0 0 1 261 -.8)">
            <tspan x="77.37" y="226.121">$</tspan>
        </text>
        <g>
            <path fill="#FFF" d="M189.267 249.373h-1.164v-4.79h1.164zM184.995 249.373h-1.165v-4.79h1.165zM183.312 249.373h-1.164v-4.79h1.164zM181.629 249.373h-1.165v-4.79h1.165zM179.946 249.373h-1.165v-4.79h1.165zM171.662 249.373h-1.166v-4.79h1.166zM169.72 249.373h-1.165v-4.79h1.165zM167.907 249.373h-2.2v-4.79h2.2zM187.456 249.373h-1.813v-4.79h1.813zM177.228 249.373h-1.812v-4.79h1.812zM174.768 249.373h-.517v-4.79h.517zM173.862 249.373h-.518v-4.79h.518zM172.957 249.373h-.518v-4.79h.518z"/>
            <path fill="#352E73" d="M45.853 229.9a2.22 2.22 0 0 1 2.218 2.22v9.947c0 1.224-.994 2.22-2.218 2.22h-2.234a2.222 2.222 0 0 1-2.219-2.22v-9.948c0-1.223.996-2.218 2.219-2.218h2.234zm-2.234 15.845h2.234a3.682 3.682 0 0 0 3.678-3.678v-9.948a3.683 3.683 0 0 0-3.678-3.678h-2.234a3.682 3.682 0 0 0-3.678 3.678v9.948a3.681 3.681 0 0 0 3.678 3.678z"/>
            <path fill="#FE9C00" d="M33.803 234.486a.458.458 0 0 1 .457-.415h18.346c.236 0 .434.179.457.415l2.412 24.93a.46.46 0 0 1-.457.505H31.848a.459.459 0 0 1-.457-.504l2.412-24.931z"/>
            <path fill="#FBC03F" d="M34.141 259.921h23.17a.46.46 0 0 0 .458-.504l-2.413-24.931a.46.46 0 0 0-.457-.415H36.553a.46.46 0 0 0-.457.415l-2.368 24.47-.045.461a.46.46 0 0 0 .458.504"/>
            <path fill="#FEAA16" d="M34.141 259.921h23.17a.46.46 0 0 0 .458-.504l-2.413-24.931a.46.46 0 0 0-.457-.415h-1.331c-2.322 6.53-8.683 20.999-19.84 24.885l-.045.461a.46.46 0 0 0 .458.504"/>
            <path fill="#FECAA0" d="M48.233 227.122c.104.348.174.709.163 1.071-.032.953-.624 1.786-1.286 2.454a9.735 9.735 0 0 1-1.957 1.521c-.677.398-1.638.67-2.172.08-.24-.267-.317-.642-.48-.965-.403-.799-1.285-1.193-2.025-1.685-.424-.281-.835-.637-1.002-1.121-.25-.728.121-1.514.558-2.138.957-1.365 2.848-3.36 4.599-3.004 1.64.33 3.147 2.26 3.602 3.787"/>
            <path fill="#FEAA16" d="M13.314 186.824c.033.109.068.215.11.323 5.934 15.758 14.94 30.266 26.331 42.453 1.596-1.034 3.604-2.842 3.947-3.21.786-.843 1.355-1.78 1.988-2.728-10.182-11.632-18.06-25.292-23.052-39.87-.877-2.559-3.597-3.96-6.129-3.162-2.583.814-3.984 3.59-3.195 6.194"/>
            <path fill="#FA6E5B" d="M29.908 296.477c.898 1.387 2.37 4.136-.16 4.809-2.078.554-4.382-.86-5.972-2.006a42.953 42.953 0 0 1-4.127-3.38c-.85-.79-1.726-1.741-1.736-2.9-.002-.199.03-.413.167-.557.13-.135.323-.18.507-.215 2.371-.457 4.92-.351 7.228.382 1.898.604 3.035 2.233 4.093 3.867M-6.34 295.841c-.978 1.51-2.579 4.497.173 5.23 2.26.602 4.766-.935 6.495-2.18a46.96 46.96 0 0 0 4.489-3.676c.925-.859 1.876-1.894 1.886-3.155.002-.216-.031-.448-.18-.605-.142-.146-.353-.196-.552-.234-2.58-.496-5.351-.382-7.86.416-2.065.657-3.301 2.429-4.452 4.204"/>
            <path fill="#C9B9FE" d="M-8.942 291.986a.92.92 0 0 0 .725.937c7.048 1.622 14.612.85 17.013.532a.921.921 0 0 0 .799-.886l.16-5.703.05-1.801.249-8.985.049-1.803.25-8.984.051-1.803.25-8.987.05-1.8.249-8.99.052-1.8.257-9.248.05-1.8.056-2.024a.92.92 0 0 1 .922-.896h.039c.487.02.874.42.881.906l.034 2.188.028 1.807.141 9.29.03 1.804.136 9.03.028 1.806.14 9.03.025 1.805.14 9.029.028 1.804.14 9.03.024 1.807.088 5.673a.925.925 0 0 0 .776.896c9.895 1.648 15.46.823 17.328.417a.92.92 0 0 0 .72-.895c.014-2.448 0-4.931-.032-7.44-.01-.612-.017-1.229-.028-1.845a519.576 519.576 0 0 0-.24-8.92c-.023-.612-.044-1.222-.07-1.836a628.55 628.55 0 0 0-.404-8.892c-.03-.612-.064-1.22-.098-1.829a733.88 733.88 0 0 0-.667-10.688 895.476 895.476 0 0 0-1.59-19.785c-.058-.61-.112-1.214-.168-1.809a939.207 939.207 0 0 0-1.024-10.403 762.444 762.444 0 0 0-1.545-13.848.919.919 0 0 0-.882-.807l-26.481-1.017a.92.92 0 0 0-.943.767 341.33 341.33 0 0 0-1.812 12.21 514.882 514.882 0 0 0-1.422 11.976c-.32 2.939-.62 5.902-.897 8.856-.06.615-.118 1.232-.176 1.846-.268 2.9-.52 5.785-.755 8.625-.051.623-.1 1.241-.152 1.86a962.788 962.788 0 0 0-.794 10.518c-.213 3.016-.404 5.918-.577 8.652l-.119 1.892c-.194 3.162-.36 6.077-.501 8.67-.037.656-.07 1.293-.104 1.907-.26 4.955-.415 8.488-.477 9.954"/>
            <path fill="#FFF" d="M-3.203 219.036a70.59 70.59 0 0 0 32.084 2.69c-.062-.616-.124-1.216-.185-1.8a68.722 68.722 0 0 1-31.664-2.696c-.08.6-.157 1.2-.235 1.806M13.244 231.04l.028 1.806a70.21 70.21 0 0 0 16.614-.708c-.056-.612-.11-1.214-.167-1.81a68.478 68.478 0 0 1-16.475.711M-4.39 229.205a70.299 70.299 0 0 0 15.652 3.46l.05-1.801a68.258 68.258 0 0 1-15.504-3.486c-.067.608-.134 1.216-.199 1.827M13.414 242.136l.028 1.804a70.087 70.087 0 0 0 17.377-.881l-.146-1.812a68.718 68.718 0 0 1-17.26.89M-5.463 239.907a70.32 70.32 0 0 0 16.416 3.807l.052-1.802a68.175 68.175 0 0 1-16.293-3.85c-.059.615-.118 1.232-.175 1.845M13.579 252.97l.028 1.806a70.127 70.127 0 0 0 17.994-1.038c-.04-.608-.08-1.214-.124-1.816a68.59 68.59 0 0 1-17.898 1.048M-6.37 250.393a70.117 70.117 0 0 0 17.024 4.11l.05-1.8a68.073 68.073 0 0 1-16.922-4.17c-.052.623-.1 1.241-.152 1.86M13.746 263.806l.026 1.804a70.026 70.026 0 0 0 18.47-1.172c-.031-.612-.065-1.22-.098-1.827a68.437 68.437 0 0 1-18.398 1.195M-7.163 260.91a70.111 70.111 0 0 0 17.515 4.383l.052-1.804a67.858 67.858 0 0 1-17.434-4.456c-.045.63-.09 1.256-.133 1.877M13.911 274.64l.029 1.804a69.953 69.953 0 0 0 18.776-1.278c-.023-.611-.044-1.222-.07-1.834a68.529 68.529 0 0 1-18.735 1.308M-7.86 271.455a70.065 70.065 0 0 0 17.914 4.626l.048-1.804a67.855 67.855 0 0 1-17.843-4.714l-.118 1.892M14.08 285.474l.024 1.806a70.001 70.001 0 0 0 18.88-1.347c-.01-.614-.018-1.23-.029-1.845a68.37 68.37 0 0 1-18.876 1.386M-8.465 282.031a69.969 69.969 0 0 0 18.22 4.834l.049-1.8a67.786 67.786 0 0 1-18.166-4.941l-.103 1.907"/>
            <path fill="#352E73" d="M.128 154.163c-3.443 4.478-4.4 10.7-8.578 14.503-2.166 1.97-4.98 3.067-7.357 4.778-2.377 1.712-4.423 4.494-3.84 7.364.211 1.044.756 2.006.877 3.063.115.988-.148 1.975-.244 2.965-.306 3.167 1.261 6.446 3.919 8.198 2.656 1.752 6.288 1.9 9.078.371 1.298-.71 2.425-1.752 3.825-2.236 1.879-.649 3.93-.196 5.915-.077 3.066.183 6.26-.507 8.71-2.359 2.453-1.853 4.037-4.961 3.641-8.007-.288-2.229-1.57-4.384-1.121-6.586.467-2.284 2.618-3.773 3.9-5.723 2.207-3.358 1.664-7.782.695-11.683-.506-2.04-1.118-4.083-2.2-5.886-1.542-2.565-4.007-5.069-7.146-4.61-3.925.574-7.66 2.786-10.074 5.925"/>
            <path fill="#FBC03F" d="M-2.377 212.338c2.493.8 4.96 1.42 7.4 1.866 7.606 1.382 14.978 1.055 22.221-.728 1.91-.465 3.149-24.307-.401-31.25-.455-.892-1.092-1.729-1.856-2.493-2.284-2.239-5.77-3.777-9.454-3.85-3.468-.073-6.789 1.384-9.064 3.376-2.275 2.003-3.64 4.477-4.732 6.971-3.295 7.544-4.57 25.953-4.114 26.108"/>
            <path fill="#352E73" d="M27.333 162.492c-.008 1.74-.288 3.565-1.34 4.95-1.051 1.387-3.053 2.164-4.605 1.377-.857-.434-1.446-1.25-1.961-2.061a30.337 30.337 0 0 1-2.871-5.79c-.696-1.89-1.21-3.914-.927-5.908.283-1.994 1.505-3.954 3.4-4.638 6.287-2.27 8.322 8.188 8.304 12.07"/>
            <path fill="#FECAA0" d="M11.96 166.632v11.21a3.994 3.994 0 0 0 7.989 0v-11.21H11.96z"/>
            <path fill="#FAB787" d="M11.96 169.317v8.248c1.712-.307 3.927-.71 4.255-.807a20.07 20.07 0 0 0 3.734-1.521c.74-.398 1.451-.848 2.124-1.358 2.512-1.913-.067-2.935-2.124-3.763-.003-.002-.007-.002-.01-.005a18.48 18.48 0 0 0-6.829-1.338c-.23 0-.464.003-.673.096a1.083 1.083 0 0 0-.476.448"/>
            <path fill="#FECAA0" d="M25.492 159.683c2.663 6.677 1.278 13.502-4.274 15.717-5.553 2.215-12.212-1.402-14.876-8.077-2.662-6.676-.32-13.883 5.232-16.098 5.553-2.215 11.254 1.784 13.918 8.458"/>
            <path fill="#FECAA0" d="M9.348 167.432c1.23 1.745 1.094 3.958-.302 4.942-1.396.984-3.525.366-4.755-1.38-1.228-1.745-1.095-3.957.302-4.941s3.525-.366 4.755 1.379"/>
            <path fill="#352E73" d="M20.015 146.973c3.117.679 6.144 2.539 7.428 5.46.445 1.01.654 2.222.135 3.196-.29.542-.775.953-1.29 1.285-2.877 1.848-6.595 1.443-9.98.97.59 1.193-.672 2.454-1.842 3.09a19.99 19.99 0 0 1-9.643 2.424c-1.782-.013-3.724-.347-4.905-1.683-1.723-1.95-1.01-5.05.359-7.264 4.03-6.518 12.476-9.059 19.738-7.478"/>
            <path fill="#FECAA0" d="M48.602 162.652c.164-.139.338-.266.524-.378.44-.266.778-.07.892.403.143.594-.38 2.437-.627 2.99-.12.274 2.914 2.5 2.87 4.355-.028 1.13-.572 2.178-1.159 3.145a29.112 29.112 0 0 1-2.96 4.043c-.419.478-.892.968-1.513 1.104-1.332.293-3.331-1.001-3.609-2.3-.257-1.21.44-2.848.769-4.015.313-1.11.303-2.222.478-3.365.101-.65.754-4.386 2.043-1.355-.09-.214 1.346-3.816 2.292-4.627"/>
            <path fill="#FEAA16" d="M44.013 170.864c-2.762 3.819-5.377 7.667-8.043 11.372a156.977 156.977 0 0 1-4.063 5.424c-.345.44-.692.877-1.044 1.307a77.03 77.03 0 0 1-1.06 1.283l-.53.63c-.17.196-.325.369-.464.516-.28.296-.499.477-.637.56a1.473 1.473 0 0 1-.386.156 2.43 2.43 0 0 1-.53.072c-.434.021-1.067-.053-1.78-.255-.713-.197-1.5-.513-2.282-.912a17.373 17.373 0 0 1-.586-.313l-.658-.376c-.44-.26-.882-.524-1.333-.812-1.794-1.126-3.664-2.453-5.737-3.793a64.025 64.025 0 0 0-1.296-.819c-2.88-1.768-6.66-.434-7.835 2.734-.936 2.522.125 5.365 2.507 6.62.367.193.74.396 1.117.606 1.9 1.053 3.899 2.287 6.116 3.487.55.3 1.124.595 1.702.886l.883.43c.325.15.649.299.982.439a22.055 22.055 0 0 0 4.283 1.346c1.546.303 3.256.458 5.127.184.93-.135 1.894-.39 2.83-.787.936-.39 1.831-.938 2.616-1.574a13.242 13.242 0 0 0 1.847-1.868c.238-.292.45-.568.643-.823l.543-.74c.36-.489.717-.978 1.061-1.472.353-.493.696-.987 1.033-1.484a165.868 165.868 0 0 0 3.898-5.982c2.497-4.001 4.841-7.992 7.269-11.858l-6.193-4.184z"/>
            <path fill="#FEAA16" d="M5.022 214.203c7.607 1.384 14.979 1.056 22.222-.728 1.911-.465 3.149-24.306-.401-31.25-.455-.89-1.092-1.728-1.857-2.492-.354 2.228.119 5.077.11 6.406-.036 4.24-.737 8.49-2.303 12.449-2.848 7.161-8.8 13.285-16.251 15.279-.502.136-1.01.244-1.52.336"/>
        </g>
    </g>
</svg>
