<svg xmlns="http://www.w3.org/2000/svg" width="13" height="13" viewBox="0 0 13 13">
    <g fill="none" fill-rule="evenodd">
        <path d="M-6-6h24v24H-6z"/>
        <path fill="#999" fill-rule="nonzero" d="M.22.22a.75.75 0 0 1 1.06 0l4.764 4.763L10.808.22a.75.75 0 0 1 .976-.073l.085.073a.75.75 0 0 1 0 1.06L7.105 6.044l4.764 4.764a.75.75 0 0 1 .072.976l-.072.085a.75.75 0 0 1-1.061 0L6.044 7.105 1.28 11.869a.75.75 0 0 1-.976.072L.22 11.87a.75.75 0 0 1 0-1.061l4.763-4.764L.22 1.28A.75.75 0 0 1 .147.304z"/>
    </g>
</svg>
