<svg xmlns="http://www.w3.org/2000/svg" width="47" height="52" viewBox="0 0 47 52">
    <g fill="none" fill-rule="evenodd">
        <path fill="#FFF" d="M-110-182h375v667h-375z"/>
        <g transform="translate(-17.4 -16)">
            <path stroke="#666" stroke-linecap="round" stroke-linejoin="round" stroke-width="1.188" d="M53.094 58.733H49.5M32.871 58.733h-3.594M41.099 18s-9.046.399-12.723 3.095v4.792h-3.182v5.392h-4.77v1.896l5.295 5.318v20.744M31.855 25.987h9.771M28.475 31.877h13.65M36.213 65.066V40.607s.834-.897 2.807-1.492a7.163 7.163 0 0 1 1.983-.287c.801-.01 1.602.1 2.364.346 1.837.594 2.617 1.433 2.617 1.433v24.46"/>
            <path stroke="#666" stroke-linecap="round" stroke-linejoin="round" stroke-width="1.188" d="M38.3 65.384V41.758s3.326-2.038 7.684.727M27.481 44.656h6.809M41.099 35.507h-1.657M41.099 18s9.045.399 12.723 3.095v4.792h3.18v5.392h4.771v1.896l-5.295 5.318v20.744M50.343 25.987h-8.717M53.722 31.877H41.627M54.716 44.656h-6.809M41.099 35.507h1.656M57.003 28.46a22.104 22.104 0 0 1 2.251 2.818M23.076 31.082a22.197 22.197 0 0 1 2.119-2.621"/>
            <path stroke="#666" stroke-linecap="round" stroke-linejoin="round" stroke-width="1.188" d="M60.923 34.224a22 22 0 0 1 2.074 9.357c0 12.147-9.804 21.995-21.898 21.995-12.095 0-21.899-9.848-21.899-21.995 0-3.313.811-6.529 2.124-9.352"/>
            <rect width="84" height="84" opacity=".4" rx="1.584"/>
        </g>
    </g>
</svg>
