<?xml version="1.0" encoding="UTF-8"?>
<svg width="12px" height="20px" viewBox="0 0 12 20" version="1.1" xmlns="http://www.w3.org/2000/svg" xmlns:xlink="http://www.w3.org/1999/xlink">
    <!-- Generator: sketchtool 55 (78076) - https://sketchapp.com -->
    <title>8B7A9D05-A51C-40BA-9748-121D2C855230</title>
    <desc>Created with sketchtool.</desc>
    <g id="Mobile-V1" stroke="none" stroke-width="1" fill="none" fill-rule="evenodd">
        <g id="3.SEO-Footer_mobile" transform="translate(-70.000000, -3054.000000)">
            <rect fill="#FFFFFF" x="0" y="0" width="320" height="3162"></rect>
            <g id="Group-10" transform="translate(0.000000, 2253.000000)">
                <rect id="Rectangle" fill="#222222" x="0" y="0" width="320" height="909"></rect>
                <g id="social-media" transform="translate(15.000000, 797.000000)">
                    <g id="ICO_facebook" transform="translate(46.437500, 0.000000)">
                        <path d="M18.984375,5.6 L16.4914773,5.6 C14.1968283,5.6 12.3366477,7.48040405 12.3366477,9.8 L12.3366477,12.32 L9.84375,12.32 L9.84375,15.68 L12.3366477,15.68 L12.3366477,22.4 L15.6605114,22.4 L15.6605114,15.68 L18.1534091,15.68 L18.984375,12.32 L15.6605114,12.32 L15.6605114,9.8 C15.6605114,9.33608081 16.0325475,8.96 16.4914773,8.96 L18.984375,8.96 L18.984375,5.6 Z" id="Path" stroke="#FFFFFF" stroke-width="1.4" stroke-linecap="round" stroke-linejoin="round"></path>
                        <rect id="Rectangle" x="0" y="0" width="28" height="28"></rect>
                    </g>
                </g>
            </g>
        </g>
    </g>
</svg>