<svg xmlns="http://www.w3.org/2000/svg" width="17" height="16" viewBox="0 0 17 16">
    <g fill="none" fill-rule="evenodd">
        <path fill="#FFF" d="M-680-445H760v672H-680z"/>
        <path fill="#F6F6F6" d="M-680-245H760v472H-680z"/>
        <path stroke="#222" stroke-linecap="round" stroke-linejoin="round" stroke-width="1.584" d="M15.286 11.444v2.1c.001.394-.167.77-.463 1.037a1.447 1.447 0 0 1-1.094.363 14.322 14.322 0 0 1-6.165-2.149 13.793 13.793 0 0 1-4.285-4.2 13.676 13.676 0 0 1-2.193-6.069c-.036-.391.097-.78.367-1.07.27-.29.653-.456 1.054-.456H4.65a1.42 1.42 0 0 1 1.429 1.204c.09.672.258 1.332.5 1.967a1.38 1.38 0 0 1-.322 1.477l-.907.889a11.317 11.317 0 0 0 4.286 4.2l.907-.889a1.45 1.45 0 0 1 1.507-.315 9.325 9.325 0 0 0 2.007.49c.718.1 1.247.71 1.229 1.421z"/>
    </g>
</svg>
