<svg xmlns="http://www.w3.org/2000/svg" width="33" height="33" viewBox="0 0 33 33">
    <g fill="#666" fill-rule="nonzero">
        <path d="M19.66 19.66h1.404v1.404H19.66zM11.936 19.66h1.404v1.404h-1.404z"/>
        <path d="M33 13.839v-3.194h-7.452V2.13h-1.064V0h-1.065v2.129h-1.064v4.258h-11.71V2.13H9.581V0H8.516v2.129H7.452v8.516H0v3.194h1.065v1.596H0V16.5h1.065v1.597H0v3.193h1.065V33h30.87V21.29H33v-3.193h-1.065V16.5H33v-1.065h-1.065V13.84H33zm-1.065-2.13v1.065h-6.387V11.71h6.387zm-4.258 10.646V21.29h1.065v1.065h-1.065zm-1.064 0h-1.065V21.29h1.065v1.065zm-7.452 9.58H13.84V26.99a5.214 5.214 0 0 1 2.661-4.565 5.214 5.214 0 0 1 2.661 4.565v4.945zm-2.423-10.589l-.238-.119-.238.12a6.274 6.274 0 0 0-3.488 5.643v4.945h-2.129V19.161h11.71v12.774h-2.13V26.99a6.275 6.275 0 0 0-3.487-5.644zM5.323 21.29v1.065H4.258V21.29h1.065zm1.064 0h1.065v1.065H6.387V21.29zm15.968-3.193H21.29v-2.13h1.065v2.13zm-11.71-2.13h1.065v2.13h-1.065v-2.13zm2.13 0h1.064v2.13h-1.065v-2.13zm2.128 0h1.065v2.13h-1.065v-2.13zm2.13 0h1.064v2.13h-1.065v-2.13zm2.128 0h1.065v2.13H19.16v-2.13zm3.194-1.064h-11.71V9.581h11.71v5.322zM9.58 31.935H8.516V5.323h1.065v26.612zm14.903 0h-1.065V5.323h1.065v26.612zm0-28.741v1.064h-1.065V3.194h1.065zm-2.13 4.258v1.064H10.646V7.452h11.71zM9.582 3.194v1.064H8.516V3.194h1.065zM1.065 11.71h6.387v1.064H1.065V11.71zm1.064 2.129h5.323v4.258H2.129v-4.258zM1.065 19.16h6.387v1.065H1.065V19.16zm2.129 2.13v1.064H2.129V21.29h1.065zm-1.065 2.128h5.323v8.516H6.387v-2.66c0-.881-.716-1.598-1.597-1.598-.88 0-1.596.717-1.596 1.597v2.661H2.129V23.42zm3.194 8.516H4.258v-2.66a.533.533 0 0 1 1.065 0v2.66zm23.419 0h-1.065v-2.66a.533.533 0 0 1 1.065 0v2.66zm1.064 0v-2.66c0-.881-.716-1.598-1.596-1.598-.88 0-1.597.717-1.597 1.597v2.661h-1.065V23.42h5.323v8.516h-1.065zm1.065-9.58h-1.065V21.29h1.065v1.065zm1.064-2.13h-6.387v-1.064h6.387v1.065zm-1.064-2.128h-5.323v-4.258h5.323v4.258z"/>
        <path d="M21.064 14.043v-3.511h-9.83v3.51h9.83zm-8.738-2.34h7.646v1.17h-7.646v-1.17zM26.68 15.447h1.405v1.404h-1.404zM28.787 15.447h1.404v1.404h-1.404zM2.809 15.447h1.404v1.404H2.809zM4.915 15.447h1.404v1.404H4.915z"/>
    </g>
</svg>
