<svg xmlns="http://www.w3.org/2000/svg" xmlns:xlink="http://www.w3.org/1999/xlink" width="48" height="51" viewBox="0 0 48 51">
    <defs>
        <circle id="a" cx="22.8" cy="22.8" r="22.8"/>
    </defs>
    <g fill="none" fill-rule="evenodd">
        <path fill="#FFF" d="M-17-298h375v667H-17z"/>
        <g transform="translate(-18 -16.6)">
            <rect width="84" height="84" opacity=".4" rx="1.584"/>
            <g transform="translate(19.2 18)">
                <g transform="translate(0 2.4)">
                    <mask id="b" fill="#fff">
                        <use xlink:href="#a"/>
                    </mask>
                    <g stroke="#666" stroke-width=".726" mask="url(#b)">
                        <path d="M19.785 4.863h5.785v45.032h-5.785zM19.785 15.032h5.784M19.785 26.653h5.784M19.785 38.274h5.784M11.108 15.032h5.785v34.863h-5.785zM11.108 15.032v-1.687c-.031-2.113.892-4.103 2.46-5.295.14-.103.284-.197.432-.282"/>
                        <path d="M16.892 15.032v-1.687c.03-2.114-.897-4.104-2.465-5.295A4.137 4.137 0 0 0 14 7.768M11.108 26.653h5.784M11.108 38.274h5.784M2.431 26.653h5.785v24.695H2.431zM2.432 26.653v-1.669c-.038-2.118.888-4.115 2.463-5.313.137-.103.28-.197.428-.282M8.214 26.653v-1.669c.035-2.12-.889-4.116-2.458-5.313a5.477 5.477 0 0 0-.433-.282M13.833 17.937h.334c.707 0 1.28.436 1.28.974v4.836h-2.893v-4.836c0-.538.572-.974 1.279-.974zM22.514 7.768h.334c.704 0 1.275.436 1.275.974v4.837h-2.892V8.742c0-.538.57-.974 1.275-.974h.008zM22.514 17.937h.334c.704 0 1.275.438 1.275.978v4.832h-2.892V18.89c.018-.532.589-.956 1.283-.952zM22.514 29.558h.334c.704 0 1.275.436 1.275.974v4.836h-2.892v-4.836c0-.538.57-.974 1.275-.974h.008zM22.514 42.632h.334c.338 0 .662.102.902.285.239.182.373.43.373.688v4.837h-2.892v-4.837c0-.259.135-.508.376-.69.241-.183.568-.285.907-.283zM13.837 29.558h.334c.704 0 1.275.436 1.275.974v4.836h-2.892v-4.836c0-.538.57-.974 1.275-.974h.008zM13.84 41.179h.32c.71 0 1.286.436 1.286.974v4.836h-2.892v-4.836c0-.538.576-.974 1.286-.974z"/>
                        <path d="M5.156 29.558h.334c.707 0 1.28.436 1.28.974v4.836H3.876v-4.836c0-.538.573-.974 1.279-.974zM5.156 42.632h.334c.34 0 .665.102.905.285.24.182.374.43.374.688v4.837H3.877v-4.837c0-.258.135-.506.375-.688.24-.183.565-.285.904-.285zM2.43 38.274h5.785M2.43 29.442s.096-2.122-1.437-2.79c0 0-1.335.06-1.455 2.77v21.925M11.106 17.805s.097-2.112-1.437-2.773c0 0-1.334.06-1.454 2.773v21.921M19.784 9.09s.092-2.112-1.443-2.774c0 0-1.331.06-1.449 2.775v21.92M34.246 49.894H28.46V15.031h5.785z"/>
                        <path d="M34.245 15.032v-1.687c.032-2.113-.892-4.103-2.458-5.295a3.75 3.75 0 0 0-.433-.282M28.462 15.032v-1.687c-.031-2.115.895-4.105 2.465-5.295.137-.103.28-.197.427-.282M34.246 26.653h-5.784M34.246 38.274h-5.784M42.924 51.347h-5.785V26.652h5.785z"/>
                        <path d="M42.922 26.653v-1.669c.033-2.12-.893-4.117-2.464-5.313a4.137 4.137 0 0 0-.427-.282M37.14 26.653v-1.669c-.04-2.115.883-4.111 2.455-5.313.137-.098.283-.192.436-.282M32.8 23.747h-2.892v-4.836c0-.538.57-.974 1.275-.974h.333c.705 0 1.276.436 1.276.974v4.836h.008zM32.8 35.368h-2.892v-4.836c0-.538.57-.974 1.275-.974h.333c.705 0 1.276.436 1.276.974v4.836h.008zM32.8 46.99h-2.892v-4.837c0-.538.572-.974 1.279-.974h.334c.706 0 1.279.436 1.279.974v4.836zM41.477 35.368h-2.892v-4.836c0-.538.57-.974 1.275-.974h.333c.705 0 1.276.436 1.276.974v4.836h.008zM44.37 48.442h-2.893v-4.837c0-.537.57-.973 1.275-.973h.325c.705 0 1.276.436 1.276.973v4.837h.016zM42.923 38.274h-5.785M42.924 29.442s-.097-2.122 1.437-2.79c0 0 1.335.06 1.454 2.77v21.925"/>
                        <path d="M34.247 17.805s-.097-2.112 1.437-2.773c0 0 1.329.06 1.454 2.773v21.921M25.57 9.09s-.093-2.112 1.443-2.774c0 0 1.325.06 1.449 2.775v21.92"/>
                    </g>
                </g>
                <circle cx="22.8" cy="25.2" r="22.8" stroke="#666" stroke-width="1.2"/>
                <g transform="translate(19.785)">
                    <circle cx="3.015" cy="3.6" r="2.4" fill="#F5F5F5"/>
                    <path stroke="#666" stroke-width=".726" d="M.001 7.263V5.581C-.038 3.47.886 1.482 2.458.287c.139-.1.283-.194.434-.287"/>
                </g>
                <path stroke="#666" stroke-width=".726" d="M25.57 7.263V4.64C25.346 2.66 24.266.928 22.676 0"/>
            </g>
        </g>
    </g>
</svg>
