<svg xmlns="http://www.w3.org/2000/svg" width="51" height="51" viewBox="0 0 51 51">
    <g fill="none" fill-rule="evenodd">
        <path fill="#FFF" d="M-296-298H79v667h-375z"/>
        <g transform="translate(-16.2 -16.6)">
            <path stroke="#666" stroke-linecap="round" stroke-linejoin="round" stroke-width="1.044" d="M59.287 25.043a23.892 23.892 0 0 1 6.655 16.578c0 13.239-10.732 23.971-23.97 23.971C28.732 65.592 18 54.86 18 41.621a23.893 23.893 0 0 1 6.662-16.585M28.432 22.327A23.861 23.861 0 0 1 42.173 18c4.886 0 9.428 1.461 13.218 3.97"/>
            <path stroke="#666" stroke-linecap="round" stroke-linejoin="round" stroke-width="1.044" d="M28.242 25.541h-3.305v-3.146c0-.646.524-1.17 1.17-1.17h.966a1.17 1.17 0 0 1 1.169 1.17v3.146zM26.59 21.225v-2.148M31.795 33.68v-1.79a1.11 1.11 0 1 1 2.222 0v1.79M32.906 30.778v-1.446M55.7 25.541h3.306v-3.072c0-.687-.558-1.244-1.245-1.244h-.817c-.687 0-1.243.557-1.243 1.244v3.072zM57.353 21.225v-2.148M55.39 61.533V49.312H28.627"/>
            <path stroke="#666" stroke-width="1.044" d="M35.97 65.257v-.705c0-3.724 2.48-6.744 6.203-6.744 3.725 0 6.204 3.02 6.204 6.744v.6"/>
            <path stroke="#666" stroke-linecap="round" stroke-linejoin="round" stroke-width="1.044" d="M24.18 57.46l.527-31.75h3.845v21.064M28.552 46.12v15.366M24.473 39.87h4.079M24.28 51.47h4.272M59.762 57.46l-.528-31.75H55.39v20.365M55.39 46.075v14.827M59.47 39.87h-4.08M59.192 51.47H55.39M31.352 44.764l.458-11.345h2.203l.446 11.349M49.065 33.324v-1.791a1.111 1.111 0 1 1 2.221 0v1.791M50.176 30.421v-1.445"/>
            <path stroke="#666" stroke-linecap="round" stroke-linejoin="round" stroke-width="1.044" d="M48.666 44.762l.415-11.699h2.203l.488 11.703M28.552 44.81H55.39M34.28 53.178v.83M42.162 53.074v.83M49.602 53.052v.83"/>
            <rect width="84" height="84" opacity=".4" rx="1.584"/>
        </g>
    </g>
</svg>
