<svg xmlns="http://www.w3.org/2000/svg" width="18" height="18" viewBox="0 0 18 18">
    <g fill="none" fill-rule="evenodd">
        <path stroke="#00b6b7" stroke-linecap="round" stroke-linejoin="round" stroke-width="1.62" d="M11.333 1.81v4.857h4.857M17 1l-5.667 5.667"/>
        <path fill="#00b6b7" d="M16.19 13.888v2.428a1.619 1.619 0 0 1-1.764 1.62A16.02 16.02 0 0 1 7.44 15.45a15.786 15.786 0 0 1-4.858-4.857A16.02 16.02 0 0 1 .097 3.574 1.619 1.619 0 0 1 1.708 1.81h2.429a1.62 1.62 0 0 1 1.619 1.393c.102.777.292 1.54.566 2.275.223.591.08 1.258-.364 1.708L4.93 8.213a12.952 12.952 0 0 0 4.857 4.857l1.028-1.028a1.619 1.619 0 0 1 1.708-.364c.735.274 1.498.464 2.275.566a1.619 1.619 0 0 1 1.392 1.644z"/>
    </g>
</svg>
