<svg xmlns="http://www.w3.org/2000/svg" width="46" height="51" viewBox="0 0 46 51">
    <g fill="none" fill-rule="evenodd">
        <path fill="#FFF" d="M-205-298h375v667h-375z"/>
        <g transform="translate(-18.8 -16.6)">
            <path stroke="#666" stroke-linecap="round" stroke-linejoin="round" stroke-width="1.044" d="M38.512 60.088V50.68c0-1.906 1.566-3.451 3.5-3.451 1.932 0 3.499 1.545 3.499 3.451v9.407M51.1 60.088h5.665M27.755 60.088h23.616M40.683 23.92v-2.576c0-.784.644-1.42 1.44-1.42.795 0 1.44.636 1.44 1.42v2.575M42.123 18v1.924M51.1 35.797v1.924M21.09 39.29h3.02v3.939h6.969v16.858M21.75 36.606c.463.236.78.713.78 1.263v1.395M24.11 43.229v12.74M63.803 39.656H59.79v3.94h-6.968v16.156M62.808 36.815a1.43 1.43 0 0 0-1.44 1.42v.78M59.79 43.595v13.216M33.726 32.463H50.22M21.841 51.658h4.034M58.082 52.025h4.565M36.12 32.944s-.256 3.163-2.393 4.777M48.116 32.944s.256 3.163 2.393 4.777"/>
            <path stroke="#666" stroke-linecap="round" stroke-linejoin="round" stroke-width="1.044" d="M48.116 32.463h-12.25v-3.746c0-2.65 2.178-4.798 4.865-4.798h2.52c2.688 0 4.865 2.148 4.865 4.798v3.746zM31.472 40.057v-.779c0-.784.645-1.42 1.44-1.42.796 0 1.44.636 1.44 1.42v.78M32.912 35.934v1.924M49.66 39.92v-.78c0-.784.644-1.42 1.44-1.42.795 0 1.44.636 1.44 1.42v.78M52.82 59.752v-19.18H31.078v2.932"/>
            <path stroke="#666" stroke-linecap="round" stroke-linejoin="round" stroke-width="1.044" d="M43.684 22.364c11.467.696 20.55 10.088 20.55 21.57 0 11.937-9.813 21.614-21.918 21.614-12.104 0-21.916-9.677-21.916-21.613a21.3 21.3 0 0 1 1.3-7.352c2.874-7.835 10.21-13.565 18.983-14.202"/>
            <rect width="84" height="84" opacity=".4" rx="1.584"/>
        </g>
    </g>
</svg>
