<?xml version="1.0" encoding="UTF-8"?>
<svg width="15px" height="20px" viewBox="0 0 15 20" version="1.1" xmlns="http://www.w3.org/2000/svg" xmlns:xlink="http://www.w3.org/1999/xlink">
    <!-- Generator: sketchtool 55 (78076) - https://sketchapp.com -->
    <title>0E178D97-B166-4DC9-817B-543016C9D406</title>
    <desc>Created with sketchtool.</desc>
    <defs>
        <linearGradient x1="0%" y1="50.303867%" x2="100%" y2="49.6866319%" id="linearGradient-1">
            <stop stop-color="#fff" offset="0%"></stop>
            <stop stop-color="#fff" offset="100%"></stop>
        </linearGradient>
    </defs>
    <g id="Desktop-V4" stroke="none" stroke-width="1" fill="none" fill-rule="evenodd">
        <g id="1.Homepage_NTB" transform="translate(-1299.000000, -22.000000)">
            <rect fill="#222222" x="0" y="0" width="1440" height="768"></rect>
            <g id="header">
                <g id="Group-3">
                    <g id="primary-header">
                        <rect id="Rectangle" fill="url(#linearGradient-1)" x="0" y="0" width="1440" height="114"></rect>
                        <rect id="Rectangle" x="0" y="0" width="1440" height="64"></rect>
                        <g id="location" transform="translate(1286.000000, 12.000000)">
                            <rect id="Rectangle" x="0" y="0" width="40" height="40"></rect>
                            <g id="ic_location_on_48px" transform="translate(13.000000, 10.000000)" fill-rule="nonzero" stroke="#222222" stroke-width="1.4">
                                <path d="M7.5,1 C3.91107143,1 1,3.8215 1,7.3 C1,12.025 7.5,19 7.5,19 C7.5,19 14,12.025 14,7.3 C14,3.8215 11.0889286,1 7.5,1 Z M7.5,9.55 C6.21857143,9.55 5.17857143,8.542 5.17857143,7.3 C5.17857143,6.058 6.21857143,5.05 7.5,5.05 C8.78142857,5.05 9.82142857,6.058 9.82142857,7.3 C9.82142857,8.542 8.78142857,9.55 7.5,9.55 Z" id="Shape"></path>
                            </g>
                        </g>
                    </g>
                </g>
            </g>
        </g>
    </g>
</svg>