<svg xmlns="http://www.w3.org/2000/svg" width="18" height="18" viewBox="0 0 18 18">
    <path fill="#00B6B6" fill-rule="nonzero" d="M16.315 8.182a7.359 7.359 0 0 0-6.497-6.497V0H8.182v1.685a7.359 7.359 0 0 0-6.497 6.497H0v1.636h1.685a7.359 7.359 0 0 0 6.497 6.497V18h1.636v-1.685a7.359 7.359 0 0 0 6.497-6.497H18V8.182h-1.685zM9 11.647a2.647 2.647 0 1 0 0-5.294 2.647 2.647 0 0 0 0 5.294zm-.096 2.984a5.723 5.723 0 0 1-5.728-5.727 5.723 5.723 0 0 1 5.728-5.728 5.723 5.723 0 0 1 5.727 5.728 5.723 5.723 0 0 1-5.727 5.727z"/>
</svg>
