<svg xmlns="http://www.w3.org/2000/svg" width="50" height="50" viewBox="0 0 50 50">
    <g fill="none" fill-rule="evenodd">
        <path fill="#FFF" d="M-15-182h375v667H-15z"/>
        <g transform="translate(-16 -16)">
            <path stroke="#666" stroke-linecap="round" stroke-linejoin="round" stroke-width="1.188" d="M28.302 22.027A23.216 23.216 0 0 1 41.406 18a23.261 23.261 0 0 1 12.624 3.71M59.033 26.042a23.511 23.511 0 0 1 5.413 11.304c.24 1.35.366 2.742.366 4.162 0 12.984-10.48 23.509-23.406 23.509C28.479 65.017 18 54.492 18 41.508A23.47 23.47 0 0 1 23.816 26"/>
            <path stroke="#666" stroke-linecap="round" stroke-linejoin="round" stroke-width="1.188" d="M23.592 56.752V22.009h5.043v39.026M23.592 26.144h5.043M18.323 39.861h4.846M23.592 31.227h17.661M23.592 37.395h17.661M23.979 42.343h4.656M31.47 62.3c-.05.64 0-19.957 0-19.957l19.566.004s.05 20.724 0 19.957"/>
            <path stroke="#666" stroke-linecap="round" stroke-linejoin="round" stroke-width="1.188" d="M35.571 64.187V53.88c0-5.808 9.354-6.863 10.999-1.451.143.47.215.96.215 1.451v10.36M23.592 22.009s-.085-3.118 2.715-3.931c0 0 2.733 1.085 2.328 3.931M58.913 57.112v-35.1H53.87v39.381M58.913 26.148H53.87M64.755 39.865h-5.418M58.876 31.231H41.253M58.913 37.399h-17.66M58.527 42.347H53.87"/>
            <path stroke="#666" stroke-linecap="round" stroke-linejoin="round" stroke-width="1.188" d="M58.913 22.013S59 18.895 56.2 18.082c0 0-2.733 1.084-2.329 3.93M33.85 37.624v1.966M48.961 37.624v1.966M41.406 37.624v1.966"/>
            <rect width="84" height="84" opacity=".4" rx="1.584"/>
        </g>
    </g>
</svg>
