<svg xmlns="http://www.w3.org/2000/svg" width="20" height="20" viewBox="0 0 20 20">
    <g fill="#00B6B6" fill-rule="nonzero">
        <circle cx="7.007" cy="8.103" r="1"/>
        <circle cx="12.191" cy="11.415" r="1"/>
        <path d="M18.919 10.839l-.296-.404a1.273 1.273 0 0 1-.012-1.484l.288-.408a1.273 1.273 0 0 0-.44-1.856l-.44-.236a1.268 1.268 0 0 1-.652-1.332l.084-.492a1.27 1.27 0 0 0-1.2-1.48l-.5-.02a1.275 1.275 0 0 1-1.168-.916l-.14-.48a1.268 1.268 0 0 0-1.724-.812l-.46.196c-.5.216-1.084.088-1.448-.32l-.332-.372a1.268 1.268 0 0 0-1.904.016l-.328.376c-.36.412-.94.548-1.444.34L6.339.963a1.273 1.273 0 0 0-1.712.84l-.132.484a1.263 1.263 0 0 1-1.152.932l-.5.028a1.27 1.27 0 0 0-1.176 1.5l.092.492c.1.536-.156 1.076-.632 1.34l-.436.244a1.27 1.27 0 0 0-.408 1.86l.296.404c.32.44.328 1.036.012 1.484l-.288.408a1.273 1.273 0 0 0 .44 1.856l.44.236c.48.256.744.792.652 1.332l-.084.492a1.27 1.27 0 0 0 1.2 1.48l.5.02a1.275 1.275 0 0 1 1.168.916l.14.48a1.268 1.268 0 0 0 1.724.812l.46-.196a1.268 1.268 0 0 1 1.448.32l.332.372a1.268 1.268 0 0 0 1.904-.016l.328-.376c.36-.412.94-.548 1.444-.34l.464.192a1.273 1.273 0 0 0 1.712-.84l.132-.484a1.263 1.263 0 0 1 1.152-.932l.5-.028a1.27 1.27 0 0 0 1.176-1.5l-.092-.492c-.1-.536.156-1.076.632-1.34l.436-.244c.668-.368.86-1.24.408-1.86zM5.035 8.103c0-1.088.88-1.968 1.968-1.968s1.968.88 1.968 1.968-.88 1.968-1.968 1.968a1.97 1.97 0 0 1-1.968-1.968zm2.348 5.076a.481.481 0 0 1-.74-.612l5.164-6.22a.481.481 0 0 1 .74.612l-5.164 6.22zm4.808.204a1.967 1.967 0 0 1-1.968-1.968c0-1.088.88-1.968 1.968-1.968s1.968.88 1.968 1.968-.88 1.968-1.968 1.968z"/>
    </g>
</svg>
