<svg xmlns="http://www.w3.org/2000/svg" xmlns:xlink="http://www.w3.org/1999/xlink" width="246" height="205" viewBox="0 0 246 205">
    <defs>
        <path id="a" d="M205.063 99.579v.389a68.608 68.608 0 0 1-.4 6.734.238.238 0 0 1 0 .04 47.127 47.127 0 0 1-.18 1.497 67.727 67.727 0 0 1-2.465 11.294 60.912 60.912 0 0 1-6.436 14.18 54.294 54.294 0 0 1-2.697 3.933 51.478 51.478 0 0 1-2.716 3.31l-.243.27a63.453 63.453 0 0 1-6.63 6.301c-3.848 3.192-7.992 5.969-12.203 8.544a19.381 19.381 0 0 1-.776.46c-5.722 3.462-11.656 6.585-17.77 9.086-6.692 2.744-13.603 4.74-20.694 5.613-9.883 1.215-19.886.227-29.71-1.472a193.008 193.008 0 0 1-24.163-5.776l-1.304-.408c-.676-.216-1.351-.435-2.025-.66a177.274 177.274 0 0 1-12.082-4.492c-10-4.12-19.553-9.252-28.51-15.314a120.357 120.357 0 0 1-3.372-2.354 146.878 146.878 0 0 1-4.59-3.444l-.931-.723a95.868 95.868 0 0 1-11.081-10.18c-4.602-5.01-8.534-10.662-11.12-17.114a46.776 46.776 0 0 1-1.12-3.1l-.032-.105c-.171-.535-.33-1.07-.475-1.626a36.743 36.743 0 0 1-.562-2.417 40.493 40.493 0 0 1-.766-8.799c.054-2.446.34-4.881.856-7.273.527-2.48 1.34-4.89 2.422-7.181a25.886 25.886 0 0 1 3.706-5.718 21.864 21.864 0 0 1 3.492-3.265c2.32-1.728 4.893-2.933 7.559-3.885a61.19 61.19 0 0 1 3.8-1.208c.904-.261 1.813-.51 2.718-.753l2.668-.721a166.7 166.7 0 0 0 5.107-1.464c4.593-1.403 9.094-3.101 13.257-5.634.659-.4 1.33-.839 2.002-1.31a35.861 35.861 0 0 0 2.531-1.938 34.753 34.753 0 0 0 2.817-2.635 29.979 29.979 0 0 0 1.84-2.12c.283-.36.557-.725.818-1.098.36-.515.703-1.04 1.02-1.578 1.586-2.696 2.566-5.67 2.45-8.803a13.547 13.547 0 0 0-.139-1.543c-.278-1.889-.545-3.733-.742-5.536-.825-7.46-.477-14.224 5.12-20.58 6.957-7.9 17.878-9.51 27.819-8.88 28.741 1.819 54.906 18.235 77.899 37.78 1.989 1.688 3.953 3.4 5.893 5.134.49.436.979.875 1.47 1.317 3.634 3.276 7.214 6.673 10.548 10.311.269.296.538.59.804.888.162.184.327.366.487.552a88.612 88.612 0 0 1 3.026 3.615 68.492 68.492 0 0 1 6.911 10.483 59.525 59.525 0 0 1 6.069 18.54c.372 2.35.616 4.72.733 7.096.036.7.06 1.401.073 2.1v.673c.021.325.021.641.019.967z"/>
    </defs>
    <g fill="none" fill-rule="evenodd" transform="translate(1 1)">
        <g transform="translate(0 14.314)">
            <mask id="b" fill="#fff">
                <use xlink:href="#a"/>
            </mask>
            <use fill="#F6F6F6" xlink:href="#a"/>
        </g>
        <path stroke="#000" stroke-width="1.3" d="M115.51 0l5.192 5.205-5.191 5.205-5.192-5.205z"/>
        <path stroke="#00BCBA" stroke-width="1.3" d="M238.16 68.968l5.84 5.856-5.84 5.855-5.84-5.855z"/>
        <ellipse cx="157.043" cy="199.096" stroke="#00B9B8" stroke-width="1.3" rx="3.894" ry="3.904"/>
        <path stroke="#000" stroke-width="1.3" d="M24.01 40.014l-3.432 1.81.655-3.833-2.777-2.714 3.838-.56 1.717-3.486 1.716 3.487 3.838.559-2.777 2.714.656 3.833z"/>
        <path stroke="#00B9B8" stroke-width="1.3" d="M5.84 174.372l5.84 5.856-5.84 5.855L0 180.228z"/>
        <g fill="#000" transform="translate(44.128 74.173)">
            <ellipse cx="43.853" cy="51.114" rx="5.134" ry="5.148"/>
            <ellipse cx="76.47" cy="72.008" rx="5.134" ry="5.148"/>
            <path d="M118.802 68.374l-1.863-2.549a8.05 8.05 0 0 1-.075-9.361l1.812-2.574c2.768-3.937 1.485-9.412-2.768-11.709l-2.769-1.488a8.004 8.004 0 0 1-4.102-8.403l.528-3.104c.806-4.744-2.743-9.134-7.55-9.336l-3.146-.127a8.027 8.027 0 0 1-7.349-5.778l-.88-3.028a7.972 7.972 0 0 0-10.848-5.123l-2.894 1.237a7.96 7.96 0 0 1-9.11-2.019l-2.09-2.346c-3.196-3.584-8.808-3.558-11.98.1l-2.063 2.372a7.988 7.988 0 0 1-9.086 2.145l-2.92-1.21c-4.454-1.843-9.487.655-10.77 5.298l-.831 3.053c-.906 3.331-3.826 5.703-7.249 5.88l-3.146.176c-4.807.278-8.28 4.72-7.399 9.463l.579 3.104A8.007 8.007 0 0 1 6.857 41.5l-2.744 1.54c-4.203 2.346-5.41 7.847-2.567 11.733l1.863 2.549a8.05 8.05 0 0 1 .075 9.361l-1.812 2.574C-1.096 73.194.187 78.67 4.44 80.966l2.769 1.488a8.004 8.004 0 0 1 4.102 8.403l-.528 3.104c-.806 4.744 2.743 9.135 7.55 9.336l3.146.127a8.027 8.027 0 0 1 7.349 5.778l.88 3.028a7.972 7.972 0 0 0 10.848 5.123l2.894-1.237a7.96 7.96 0 0 1 9.11 2.019l2.09 2.347c3.221 3.583 8.834 3.558 11.98-.101l2.063-2.372a7.988 7.988 0 0 1 9.086-2.145l2.92 1.211c4.454 1.842 9.487-.656 10.77-5.3l.831-3.052c.906-3.331 3.826-5.703 7.249-5.88l3.146-.176c4.807-.278 8.28-4.72 7.399-9.463l-.579-3.104a8.007 8.007 0 0 1 3.976-8.453l2.744-1.54c4.203-2.32 5.41-7.822 2.567-11.733zm-87.357-17.26c0-6.863 5.537-12.415 12.383-12.415 6.845 0 12.382 5.552 12.382 12.415 0 6.864-5.537 12.415-12.382 12.415-6.846 0-12.383-5.576-12.383-12.415zM46.22 83.136a3.023 3.023 0 0 1-4.254.403c-1.283-1.06-1.46-2.977-.402-4.264l32.49-39.238a3.023 3.023 0 0 1 4.254-.404c1.284 1.06 1.46 2.977.403 4.264L46.219 83.136zm30.251 1.287c-6.846 0-12.382-5.552-12.382-12.415 0-6.864 5.536-12.415 12.382-12.415s12.382 5.551 12.382 12.415c0 6.863-5.536 12.415-12.382 12.415z"/>
        </g>
    </g>
</svg>
