<svg xmlns="http://www.w3.org/2000/svg" width="49" height="53" viewBox="0 0 49 53">
    <g fill="none" fill-rule="evenodd">
        <path fill="#FFF" d="M-110-298h375v667h-375z"/>
        <g stroke="#666" stroke-linecap="round" stroke-linejoin="round" stroke-width="1.05">
            <path d="M15.62 6.337v-2.39h-2.227L16.648.698h7.995M15.62 13.862V8.6M15.62 44.569V19.073M1.754 25.83H4.37v-1.91s1.825-3.416 5.882-3.419c3.94-.003 5.368 3.191 5.368 3.191M4.37 25.83v13.133M10.6 20.51v24.059"/>
            <path d="M33.609 6.416v-2.47h2.227L32.581.7h-7.995M33.609 13.862v-5.21M33.609 44.26V18.892M47.472 25.83H44.86v-1.91s-1.827-3.416-5.883-3.419c-3.94-.003-5.368 3.191-5.368 3.191M44.86 25.83v13.133M38.628 20.51v24.223"/>
            <path d="M36.268 8.01c6.878 4.013 11.498 11.46 11.498 19.982 0 12.774-10.379 23.129-23.18 23.129-12.802 0-23.18-10.355-23.18-23.129 0-8.609 4.714-16.119 11.706-20.101M8.687 44.733h31.886"/>
            <path d="M20.521 44.798V34.25c0-2.374 1.93-4.3 4.31-4.3a4.304 4.304 0 0 1 4.308 4.3v10.548M24.83 30.063v14.735M13.392 24.05v2.123M13.392 34.56v2.123M13.392 29.415v2.123M36.267 24.16v2.123M36.267 34.67v2.123M13.392 39.811v2.123M36.267 39.92v2.123M36.267 29.525v2.122M4.152 29.525H1.539M47.472 29.525H44.86M13.112 8.343h23.155V6.416H13.112zM14.079 18.892H35.3v-5.03H14.079zM18.043 13.862v5.03M30.874 13.862v5.03M21.214 13.862v5.03M24.43 13.862v5.03M27.652 13.862v5.03"/>
        </g>
        <rect width="82.805" height="83.168" x="96" opacity=".4" rx="1.584" transform="translate(-111 -16.6)"/>
    </g>
</svg>
