<svg xmlns="http://www.w3.org/2000/svg" width="16" height="22" viewBox="0 0 16 22">
    <path fill="#000" fill-rule="nonzero" stroke="#222" stroke-width=".1" d="M12.094 8.155a3.65 3.65 0 1 0-7.3-.075 3.65 3.65 0 0 0 7.3.075zm-6.548 0a2.898 2.898 0 1 1 5.795-.075 2.898 2.898 0 0 1-5.795.075zm8.166 8.738a.376.376 0 1 0-.46.594c.326.21.544.55.595.934 0 1.023-2.258 2.152-5.411 2.152-3.154 0-5.404-1.129-5.404-2.152 0-.753 1.22-1.506 3.01-1.897l2.138 2.168c.148.14.379.14.527 0l5.005-4.99a7.443 7.443 0 1 0-10.537 0l2.198 2.197c-1.92.535-3.094 1.438-3.094 2.522 0 1.633 2.71 2.905 6.164 2.905 3.455 0 6.165-1.272 6.165-2.905a1.98 1.98 0 0 0-.896-1.528zM3.717 3.714a6.684 6.684 0 0 1 9.453 9.453l-4.727 4.727-4.726-4.727a6.698 6.698 0 0 1 0-9.453z" opacity=".5"/>
</svg>
