<svg xmlns="http://www.w3.org/2000/svg" width="305" height="444" viewBox="0 0 305 444">
    <g fill="none" fill-rule="evenodd">
        <path fill="#F5F6FF" d="M-13 .174C54.457-2.908 118.28 34.87 178.47 113.505c60.19 78.637 153.7 73.957 280.53-14.04V525H-13V.174z"/>
        <g transform="translate(-21 86)">
            <path fill="#EAECFF" d="M128.899 95.823V80.599h13.417v15.224h25.045v26.866h48.302V25.971h40.251v96.718h9.84V56.42h42.934v66.27h8.945v-9.85h16.1v9.85h5.367V79.703h40.252v122.69H171.834l-127.377.235v-63.584h.361V75.226h25.046V53.733h43.829v85.183l53.668-.099v-.008H128.9V95.823z"/>
            <rect width="42.935" height="6.269" x="265.754" y="53.242" fill="#EAECFF" rx="3.134"/>
            <g fill-rule="nonzero">
                <path fill="#111" d="M44.304 112.475c-24.165 0-43.708 20.305-43.708 45.409 0 34.056 43.708 73.81 43.708 73.81s43.707-39.754 43.707-73.81c0-25.104-19.543-45.409-43.707-45.409z"/>
                <path fill="#FFF" d="M62.578 164.789c0 7.299-7.948 7.995-13.57 8.03h-5.056v-6.572h10.055v-5.014H43.952v-6.816h11.131v-5.3H38.056v23.713H31.55v-29.805h17.465c5.195 0 13.57.762 13.57 7.813 0 3.488-2.913 6.054-6.308 6.934 4.208 1.332 6.3 3.472 6.3 7.017zm-41.98-6.861c0 14.403 11.442 26.079 25.558 26.079 14.115 0 25.557-11.676 25.557-26.08 0-14.4-11.438-26.074-25.55-26.078-14.123 0-25.565 11.676-25.565 26.079z"/>
            </g>
            <path fill="#FFF" d="M284.939 69.424h8.798v17.252h-8.798V69.424zm-50.164-31.811h7.156v15.224h-7.156V37.613zm-86.764 68.061h7.156v17.91h-7.156v-17.91zm86.764-41.195h7.156v15.224h-7.156V64.48zm-144.01.896h7.155v15.224h-7.156V65.375zM55.88 86.868h7.156v15.224H55.88V86.868zm34.884 5.373h7.156v15.224h-7.156V92.241zm267.448 0h8.05v11.642h-8.05V92.24z"/>
            <path fill="#E1E4FF" d="M127.688 79.008h16.367a1.343 1.343 0 1 1 0 2.687h-16.367a1.343 1.343 0 1 1 0-2.687zM235.788 0l20.126 25.97h-40.251L235.789 0zM91.779 27.762l21.915 25.97h-43.83l21.915-25.97z"/>
        </g>
        <g fill-rule="nonzero" transform="translate(131 232)">
            <path fill="#F2F2F2" d="M90.575 42.304h1v3.802h-1z"/>
            <path fill="#2F2E41" d="M62.231 74.762H12.996v-.35h48.88v-16.98H17.136l-2.174-4.475.32-.151 2.077 4.277H62.23z"/>
            <ellipse cx="21.969" cy="81.248" fill="#F9F9F9" stroke="#222" stroke-width="2.7" rx="2.785" ry="2.752"/>
            <ellipse cx="52.911" cy="81.248" fill="#F9F9F9" stroke="#222" stroke-width="2.7" rx="2.785" ry="2.752"/>
            <path fill="#2F2E41" d="M67.315 51.931h-55.34L0 13.246h79.647l-.072.228-12.26 38.457zm-55.079-.35h54.82l12.108-37.985H.48l11.757 37.985z"/>
            <path fill="#D9DDFC" d="M62.996 49.918H14.388L3.87 15.61h69.957l-.064.202z"/>
            <path fill="#2F2E41" d="M79.212 12.147l2.338-8.912 19.94-3.16v.35l-19.668 3.16-2.267 8.651zM3.87 24.974h71.798v1H3.87zM7.862 37.872h63.694v1H7.862z"/>
            <path fill="#2F2E41" d="M39.645 13.421h1v38.335h-1zM53.495 51.756l2.537-38.335-2.537 38.335zM23.62 13.42l2.522 38.336z"/>
        </g>
        <path fill="#FAD4B0" d="M255.226 178.954c1.384-2.555 2.068-5.472 1.228-8.399-2.42-8.433-13.94-4.016-15.34.798-1.4 4.813 1.204 15.715 4.365 15.85 1.26.054 3.646-1.242 5.906-3.354l.818 11.849 9.604-2.041-6.58-14.703z"/>
        <path fill="#000" d="M256.374 180.725c.066-5.617 2.723-10.002 1.689-12.286-.69-1.523-1.832-2.319-3.43-2.386-1.455-3-4.267-3.81-8.434-2.43-6.251 2.07-9.594 5.558-6.663 11.048 1.55-.33 3.304-1.289 6.098-.878.886.13 1.675.95 2.365 2.461l1.17-.249c.736-2.123 1.709-3.053 2.919-2.788 1.21.264 1.718 1.422 1.525 3.475l1.516 4.297 1.245-.264z"/>
        <path fill="#FAD4B0" d="M283.78 220.587l-30.469 50.943-22.843 43.069h-4.92l38.274-94.012z"/>
        <path fill="#000" d="M233.75 313.616c.211.71.316 1.276.316 1.696 0 .75-.121 1.845-.365 3.285h-22.863c-.594-2.016-.25-3.105 1.03-3.265 1.28-.161 2.343-.306 3.19-.436l10.148-4.644a.9.9 0 0 1 1.21.483l.49 1.22c1.185.568 2.148.852 2.89.852.419 0 .95-.121 1.593-.364a1.8 1.8 0 0 1 2.362 1.173z"/>
        <path fill="#111" d="M236.812 307.702l-9.488-2.87c4.157-12.43 9.252-26.107 15.285-41.033 6.034-14.926 12.513-29.33 19.439-43.212h26.799c-7.7 17.56-15.863 33.516-24.489 47.867-8.626 14.351-17.808 27.434-27.546 39.248z"/>
        <path fill="#FAD4B0" d="M285.783 220.587c2.876 17.902 8.422 40.773 8.946 41.48.348.47 12.911 4.68 37.687 12.63l-1.063 4.338c-29.545-4.263-45.113-7.57-46.704-9.923-2.385-3.528-14.297-31.399-18.91-48.525h20.044z"/>
        <path fill="#000" d="M323.707 270.945l-1.872 6.989c-22.098 1.938-35.639.538-40.62-4.202-4.982-4.74-10.66-22.454-17.034-53.145h25.554c4.038 25.131 6.296 38.225 6.773 39.28.477 1.055 9.544 4.748 27.199 11.078z"/>
        <g>
            <path fill="#FAD4B0" d="M235.225 227.837l-15.44 5.397c-3.704-.128-6.914.143-9.629.813-.692.328-1.653 1.129.65 1.647 2.302.519 4.701 1.168 4.778 2.032.077.864-1.564 1.364-1.251 2.593.208.82 2.711-.305 7.51-3.374l14.074-1.345-.692-7.763zm47.061-19.786l-7.994 4.11c18.81 15.205 28.639 23.175 29.488 23.912 1.91 1.657 1.74 5.75 1.845 7.85 3.06-.16.698-4.14 4.587-4.286 3.55-.133 6.963 1.165 9.243-2.565.28-.458.246-1.63-1.21-1.817-3.627-.466-9.144-1.706-10.207-2.498-1.45-1.079-10.034-9.314-25.752-24.706z"/>
            <path fill="#C6CAF6" d="M254.912 187.416l-6.404 2.958c3.978 15.199-1.302 27.79-22.233 32.248l4.584 19.78c19.356-4.708 32.71-18.27 28.383-39.451-1.12-5.483-2.501-11.107-4.33-15.535z"/>
            <path fill="#CFD3FF" d="M257.423 184.27l-9.084 6.092c6.545 17.049 5.266 30.02 7.28 43.63l26.887-10.321c2.041 4.186 3.983 8.549 5.86 13.075l20.13-7.728c-13.839-22.418-30.645-37.42-50.418-45.007l-.652.25-.003.009z"/>
            <path fill="#000" fill-opacity=".1" d="M268.927 200.976c4.771 10.358 7.476 18.622 8.114 24.793l5.465-2.098c-4.044-8.293-8.48-15.892-13.579-22.695z"/>
        </g>
    </g>
</svg>
