<?xml version="1.0" encoding="UTF-8"?>
<svg width="20px" height="18px" viewBox="0 0 20 18" version="1.1" xmlns="http://www.w3.org/2000/svg" xmlns:xlink="http://www.w3.org/1999/xlink">
    <!-- Generator: sketchtool 55 (78076) - https://sketchapp.com -->
    <title>0477B89B-EE6E-43EF-B4A7-15249C25F71E</title>
    <desc>Created with sketchtool.</desc>
    <g id="Mobile-V1" stroke="none" stroke-width="1" fill="none" fill-rule="evenodd">
        <g id="3.SEO-Footer_mobile" transform="translate(-112.000000, -3055.000000)">
            <rect fill="#FFFFFF" x="0" y="0" width="320" height="3162"></rect>
            <g id="Group-10" transform="translate(0.000000, 2253.000000)">
                <rect id="Rectangle" fill="#222222" x="0" y="0" width="320" height="909"></rect>
                <g id="social-media" transform="translate(15.000000, 797.000000)">
                    <g id="ICO_twitter" transform="translate(92.875000, 0.000000)">
                        <rect id="Rectangle" x="0" y="0" width="28" height="28"></rect>
                        <path d="M23.203125,6.30869615 C22.4073796,6.88107438 21.5263254,7.31885188 20.593892,7.60516984 C19.5687789,6.40320976 17.9168273,5.98170881 16.4574114,6.54973301 C14.9979956,7.11775722 14.0415599,8.55447742 14.0625,10.1472751 L14.0625,10.9946435 C11.0965042,11.0730695 8.2889699,9.63205011 6.58380682,7.15606458 C6.58380682,7.15606458 3.25994318,14.7823804 10.7386364,18.171854 C9.02728498,19.3564466 6.9886176,19.9504205 4.921875,19.8665909 C12.4005682,24.103433 21.5411932,19.8665909 21.5411932,10.121854 C21.540428,9.88582266 21.5181733,9.65037351 21.4747159,9.41853826 C22.3228023,8.56565608 22.9212841,7.48883699 23.203125,6.30869615 Z" id="Path" stroke="#FFFFFF" stroke-width="1.4" stroke-linecap="round" stroke-linejoin="round"></path>
                    </g>
                </g>
            </g>
        </g>
    </g>
</svg>