<svg xmlns="http://www.w3.org/2000/svg" width="329" height="246" viewBox="0 0 329 246">
    <g fill="none" fill-rule="evenodd">
        <path fill="#0EADAD" d="M181.849 18.519C146.374 30.524 34.009-28.675 42.803 52.187c1.374 12.024 8.68 29.007 2.51 40.232-4.471 8.407-12.666 13.332-20.583 16.6-20.678 8.912-28.377 25.635-23.14 49.504 14.007 64.317 90.258 49.064 130.287 29.993 28.468-14.192 62.042-16.63 91.52-4.624 23.094 9.776 37.49 30.283 64.594 24.275 24.039-5.113 27.666-29.168 20.647-51.56-3.988-13.855-6.851-19.708 1.059-33.081 6.664-13.281 18.396-23.345 19.3-38.904.196-16.853-7.11-33.835-21.248-40.218-11.568-5.221-22.053-3.114-33.497-6.324-25.453-7.583-41.81-49.503-73.387-35.086-7.873 3.94-12.304 13.017-20.883 15.661" opacity=".1"/>
        <g fill="#01B4B4" fill-rule="nonzero">
            <path d="M124.695 130.787c-6.062 0-10.993 4.843-10.993 10.795 0 5.95 4.931 10.793 10.993 10.793 6.06 0 10.99-4.843 10.99-10.793 0-5.952-4.931-10.795-10.99-10.795zm0 14.623c-2.276 0-4.125-1.718-4.125-3.828 0-2.112 1.851-3.83 4.125-3.83 2.273 0 4.122 1.718 4.122 3.83 0 2.11-1.849 3.828-4.122 3.828z"/>
            <path stroke="#00B4B5" stroke-width="4.5" d="M192.515 138.278h-45.78c-1.897 0-3.435 1.56-3.435 3.483s1.538 3.482 3.434 3.482h45.781c1.897 0 3.434-1.56 3.434-3.482 0-1.924-1.537-3.483-3.434-3.483z"/>
            <path d="M124.695 100.516c-6.062 0-10.993 4.841-10.993 10.793 0 5.952 4.931 10.793 10.993 10.793 6.06 0 10.99-4.841 10.99-10.793 0-5.952-4.931-10.793-10.99-10.793zm0 14.621c-2.276 0-4.125-1.716-4.125-3.828 0-2.11 1.851-3.828 4.125-3.828 2.273 0 4.122 1.718 4.122 3.828 0 2.112-1.849 3.828-4.122 3.828zM124.695 161.06c-6.062 0-10.993 4.841-10.993 10.793 0 5.952 4.931 10.793 10.993 10.793 6.06 0 10.99-4.84 10.99-10.793 0-5.953-4.931-10.793-10.99-10.793zm0 14.621c-2.276 0-4.125-1.716-4.125-3.828 0-2.11 1.851-3.828 4.125-3.828 2.273 0 4.122 1.718 4.122 3.828 0 2.112-1.849 3.828-4.122 3.828z"/>
            <path stroke="#00B4B5" stroke-width="4.5" d="M192.515 168.316h-45.78c-1.897 0-3.435 1.56-3.435 3.483s1.538 3.482 3.434 3.482h45.781c1.897 0 3.434-1.559 3.434-3.482 0-1.924-1.537-3.483-3.434-3.483z"/>
            <path stroke="#00B4B5" stroke-width="4.5" d="M261.283 60.783c-.204-1.75-1.675-3.061-3.412-3.042h-9.458v-6.166c0-12.31-10.465-22.325-23.178-22.325-12.714 0-23.178 10.013-23.178 22.325v6.166h-10.571c-1.737-.02-3.208 1.292-3.412 3.04l-1.19 10.455H92.646c-1.88-.017-3.417 1.515-3.434 3.422l-.815 121.955H64.104c-1.897 0-3.262 1.636-3.262 3.56v15.474c.027 14.608 11.367 26.615 25.754 27.273v-.161h106.018v.14c.43.033.924-.14 1.45-.14h.12c7.095.037 13.912-2.801 18.936-7.884 5.023-5.081 7.84-11.987 7.823-19.184v-79.59h30.242c4.839.036 9.464-2.025 12.712-5.664a15.682 15.682 0 0 0 3.898-12.28l-6.512-57.374zm-52.358-9.208c0-8.47 7.382-15.36 16.31-15.36 8.928 0 16.31 6.89 16.31 15.36v6.166h-32.62v-6.166zM87.642 235.793h-.022c-5.284.038-10.363-2.073-14.105-5.858a20.2 20.2 0 0 1-5.805-14.295v-12.062h99.58v12.016c-.042 7.217 2.775 14.149 7.82 19.238.36.366.679.963 1.056.963l-88.524-.002zm126.433-20.199v.046c.03 5.359-2.057 10.506-5.794 14.291-3.737 3.787-8.814 5.9-14.097 5.862h-.07a19.69 19.69 0 0 1-14.135-5.875 20.26 20.26 0 0 1-5.821-14.324v-15.422c-.044-1.959-1.607-3.532-3.54-3.56H95.266l.788-118.41h90.04l-3.362 29.602h-35.998c-1.896 0-3.434 1.56-3.434 3.483s1.538 3.483 3.434 3.483h35.208l-.38 3.368a15.717 15.717 0 0 0 3.9 12.295c3.247 3.64 7.871 5.702 12.71 5.668h15.903v79.493zm44.695-89.793a10.041 10.041 0 0 1-7.585 3.335h-53.01a10.049 10.049 0 0 1-7.586-3.333 8.697 8.697 0 0 1-2.202-6.828l6.159-54.269h7.511v5.001c0 1.924 1.538 3.483 3.434 3.483 1.896 0 3.434-1.56 3.434-3.483v-5h32.62v5c0 1.924 1.538 3.483 3.434 3.483 1.897 0 3.434-1.56 3.434-3.483v-5h6.395l6.162 54.268a8.69 8.69 0 0 1-2.2 6.826z"/>
        </g>
    </g>
</svg>
