<svg xmlns="http://www.w3.org/2000/svg" width="18" height="19" viewBox="0 0 18 19">
    <g fill="none" fill-rule="nonzero">
        <path fill="#999" d="M6.16 15.728a2.996 2.996 0 0 1-2.992-2.992V5.52H1.936A1.938 1.938 0 0 0 0 7.456v9.504c0 1.068.868 1.936 1.936 1.936h8.8a1.938 1.938 0 0 0 1.936-1.936v-1.232H6.16z"/>
        <path fill="#666" d="M17.488 1.936C17.488.866 16.621 0 15.552 0H6.16C5.09 0 4.224.867 4.224 1.936v10.8c0 1.07.867 1.936 1.936 1.936h9.392c1.07 0 1.936-.867 1.936-1.936v-10.8z"/>
    </g>
</svg>
