<svg xmlns="http://www.w3.org/2000/svg" width="17" height="17" viewBox="0 0 17 17">
    <path fill="#4268B3" fill-rule="evenodd" d="M1.545 0C.693 0 0 .693 0 1.545v13.91C0 16.307.693 17 1.545 17h5.796a.387.387 0 0 0 .386-.386v-5.41a.387.387 0 0 0-.386-.386h-.757a.387.387 0 0 1-.386-.386V8.114c0-.214.173-.387.386-.387h.757a.387.387 0 0 0 .386-.386v-.773a3.482 3.482 0 0 1 3.478-3.477h2.318c.213 0 .386.173.386.386v2.318a.387.387 0 0 1-.386.387h-2.318a.387.387 0 0 0-.387.386v.773c0 .213.173.386.387.386h2.318a.384.384 0 0 1 .38.45l-.386 2.319a.385.385 0 0 1-.38.322h-1.932a.387.387 0 0 0-.387.387v5.409c0 .213.173.386.387.386h4.25c.852 0 1.545-.693 1.545-1.545V1.545C17 .693 16.307 0 15.455 0H1.545z"/>
</svg>
