<svg xmlns="http://www.w3.org/2000/svg" width="19" height="15" viewBox="0 0 19 15">
    <g fill="none" fill-rule="nonzero">
        <g fill="#F2F2F2">
            <path d="M17.459 2.261l-1.177 11.816H2.15L1.202 2.49l8.014 4.487z"/>
            <path d="M17.06.035L9.216 7.404 1.372.035h7.844z"/>
        </g>
        <path fill="#F14336" d="M2.15 3.438v10.639H.869a.87.87 0 0 1-.869-.87V1.872l1.404.038.746 1.529z"/>
        <path fill="#D32E2A" d="M18.432 1.87v11.338a.87.87 0 0 1-.87.869h-1.28V3.437l.71-1.674 1.44.108z"/>
        <path fill="#F14336" d="M18.432.904v.967l-2.15 1.567-7.066 5.15-7.066-5.15L0 1.87V.904C0 .424.39.035.869.035h.503l7.844 5.718L17.06.035h.503c.48 0 .869.39.869.87z"/>
        <path fill="#D32E2A" d="M2.15 3.438L0 3.104V1.871z"/>
    </g>
</svg>
