<svg xmlns="http://www.w3.org/2000/svg" width="15" height="18" viewBox="0 0 15 18">
    <path fill="#E42B33" fill-rule="evenodd" d="M0 6.378c0 2.245 1.76 4.292 2.704 4.76a.374.374 0 0 0 .525-.228l.62-2.06a.375.375 0 0 0-.087-.367C3.553 8.265 3 7.687 3 6.745c0-2.579 1.806-4.12 4.832-4.12C10.168 2.626 12 4.272 12 6.37c0 1.932-1.554 4.135-2.917 4.135-1.585 0-1.604-1.44-1.605-1.494.891-.845 1.188-2.632 1.188-3.035.001-.238.002-.68-.355-1.02-.318-.3-.857-.454-1.603-.454-1.859 0-2.354 1.415-2.354 2.251 0 .63.38 1.471.397 1.494l-1.845 7.625a2.54 2.54 0 0 0 .554 1.99.374.374 0 0 0 .498.075c.355-.237.994-.723 1.282-1.316.334-.691 1.281-3.142 1.816-4.542l.067-.069c.009.007.928.746 2.355.746C13.554 12.756 15 9.32 15 6.378 15 4.008 13.504 0 7.895 0 2.067 0 0 3.436 0 6.378z"/>
</svg>
