<svg xmlns="http://www.w3.org/2000/svg" width="18" height="15" viewBox="0 0 18 15">
    <path fill="#43BCEB" fill-rule="evenodd" d="M17.451 1.746a3.63 3.63 0 0 1-.56.202c.293-.385.53-.822.633-1.214a.376.376 0 0 0-.58-.4c-.22.156-1.24.608-1.898.754C14.212.338 13.381 0 12.376 0c-.754 0-1.452.215-2.264.697-1.415.84-1.66 2.656-1.555 3.77C4.715 4.1 2.56 1.864 1.795.891a.398.398 0 0 0-.321-.141.375.375 0 0 0-.298.185c-.916 1.57-.54 3.185.163 4.272a4.736 4.736 0 0 1-.35-.263.374.374 0 0 0-.614.288c0 1.648.965 2.826 1.907 3.495a6.924 6.924 0 0 1-.295-.086.376.376 0 0 0-.455.51c.602 1.354 1.8 2.363 3.143 2.714-1.155.703-2.75 1.064-4.257.886a.375.375 0 0 0-.23.698C2.015 14.493 3.912 15 5.989 15H6c2.835-.002 5.499-1.236 7.498-3.474 1.93-2.16 2.942-4.925 2.735-7.442.495-.37 1.246-1.064 1.709-1.808a.374.374 0 0 0-.492-.53z"/>
</svg>
